<svg aria-hidden="true" style="position: absolute; width: 0; height: 0; overflow: hidden;" version="1.1" xmlns="http://www.w3.org/2000/svg" xmlns:xlink="http://www.w3.org/1999/xlink">
<defs>
<symbol id="call" viewBox="0 0 32 32">
<path  d="M25.919 17.333c-0.293 0-0.6-0.093-0.893-0.16-0.594-0.131-1.178-0.305-1.747-0.52-0.619-0.225-1.298-0.213-1.909 0.033s-1.108 0.709-1.398 1.301l-0.293 0.6c-1.299-0.723-2.492-1.62-3.547-2.667-1.047-1.055-1.944-2.248-2.667-3.547l0.56-0.373c0.591-0.289 1.054-0.787 1.301-1.398s0.258-1.29 0.033-1.909c-0.212-0.57-0.385-1.154-0.52-1.747-0.067-0.293-0.12-0.6-0.16-0.907-0.162-0.939-0.654-1.79-1.387-2.398s-1.66-0.935-2.613-0.922h-4c-0.575-0.005-1.144 0.113-1.668 0.347s-0.993 0.579-1.372 1.010c-0.38 0.431-0.662 0.94-0.827 1.49s-0.211 1.13-0.132 1.699c0.71 5.586 3.261 10.776 7.25 14.75s9.188 6.507 14.776 7.197h0.507c0.983 0.001 1.933-0.359 2.667-1.013 0.422-0.377 0.759-0.84 0.989-1.357s0.347-1.077 0.345-1.643v-4c-0.016-0.926-0.354-1.818-0.954-2.523s-1.427-1.18-2.339-1.343zM26.586 25.333c-0 0.189-0.041 0.376-0.119 0.549s-0.192 0.326-0.334 0.451c-0.149 0.129-0.323 0.225-0.511 0.282s-0.386 0.075-0.582 0.051c-4.993-0.64-9.632-2.925-13.183-6.493s-5.814-8.217-6.43-13.214c-0.021-0.195-0.003-0.393 0.055-0.581s0.152-0.362 0.279-0.513c0.125-0.142 0.279-0.256 0.451-0.334s0.36-0.119 0.549-0.119h4c0.31-0.007 0.613 0.095 0.856 0.287s0.412 0.463 0.477 0.767c0.053 0.364 0.12 0.724 0.2 1.080 0.154 0.703 0.359 1.394 0.613 2.067l-1.867 0.867c-0.16 0.073-0.303 0.177-0.422 0.306s-0.212 0.28-0.273 0.445c-0.061 0.165-0.088 0.34-0.081 0.515s0.049 0.348 0.123 0.507c1.919 4.11 5.223 7.414 9.333 9.333 0.325 0.133 0.689 0.133 1.013 0 0.166-0.059 0.319-0.151 0.45-0.27s0.236-0.263 0.31-0.423l0.827-1.867c0.689 0.246 1.393 0.451 2.107 0.613 0.356 0.080 0.716 0.147 1.080 0.2 0.303 0.065 0.574 0.234 0.767 0.477s0.294 0.546 0.287 0.856l0.027 4.16z"></path>
</symbol>
<symbol id="email" viewBox="0 0 32 32">
<path d="M25.333 5.333h-18.667c-1.061 0-2.078 0.421-2.828 1.172s-1.172 1.768-1.172 2.828v13.333c0 1.061 0.421 2.078 1.172 2.828s1.768 1.172 2.828 1.172h18.667c1.061 0 2.078-0.421 2.828-1.172s1.172-1.768 1.172-2.828v-13.333c0-1.061-0.421-2.078-1.172-2.828s-1.768-1.172-2.828-1.172zM24.569 8l-7.769 6.4c-0.222 0.169-0.492 0.263-0.771 0.27s-0.553-0.075-0.783-0.233l-7.816-6.437h17.139zM25.333 24h-18.667c-0.354 0-0.693-0.141-0.943-0.391s-0.391-0.589-0.391-0.943v-12.933l8.267 6.8c0.688 0.515 1.525 0.793 2.384 0.791 0.889-0.001 1.754-0.292 2.464-0.828l8.219-6.763v12.933c0 0.354-0.141 0.693-0.391 0.943s-0.589 0.391-0.943 0.391z"></path>
</symbol>
<symbol id="transfer" viewBox="0 0 32 32">
<path d="M0.314 14.431v-9.412c0-0.416 0.165-0.815 0.459-1.109s0.693-0.459 1.109-0.459h24.455l-0.455-0.455c-0.257-0.3-0.391-0.686-0.376-1.081s0.179-0.769 0.458-1.049c0.279-0.279 0.654-0.443 1.049-0.458s0.781 0.119 1.081 0.376l3.137 3.137c0.292 0.294 0.456 0.691 0.456 1.106s-0.164 0.812-0.456 1.106l-3.137 3.137c-0.3 0.257-0.686 0.391-1.081 0.376s-0.769-0.179-1.049-0.458c-0.279-0.279-0.443-0.654-0.458-1.049s0.119-0.781 0.376-1.081l0.455-0.471h-22.886v7.843c0 0.416-0.165 0.815-0.459 1.109s-0.693 0.459-1.109 0.459-0.815-0.165-1.109-0.459c-0.294-0.294-0.459-0.693-0.459-1.109zM30.118 16c-0.416 0-0.815 0.165-1.109 0.459s-0.459 0.693-0.459 1.109v7.843h-22.886l0.455-0.455c0.257-0.3 0.391-0.686 0.376-1.081s-0.179-0.769-0.458-1.049c-0.279-0.279-0.654-0.443-1.049-0.458s-0.781 0.119-1.081 0.376l-3.137 3.137c-0.292 0.294-0.456 0.691-0.456 1.106s0.164 0.812 0.456 1.106l3.137 3.137c0.3 0.257 0.686 0.391 1.081 0.376s0.769-0.179 1.049-0.458c0.279-0.279 0.443-0.654 0.458-1.049s-0.119-0.781-0.376-1.081l-0.455-0.471h24.455c0.416 0 0.815-0.165 1.109-0.459s0.459-0.693 0.459-1.109v-9.412c0-0.416-0.165-0.815-0.459-1.109s-0.693-0.459-1.109-0.459z"></path>
</symbol>
<symbol id="card" viewBox="0 0 32 32">
<path d="M28.695 7c0 0.603 0 1.209 0 1.812 0 1.444 0 2.888 0 4.328 0 1.741 0 3.481 0 5.222 0 1.5 0 3 0 4.497 0 0.706 0.003 1.412 0 2.119 0 0.066-0.003 0.128-0.013 0.194 0.016-0.109 0.031-0.222 0.044-0.331-0.016 0.112-0.044 0.219-0.084 0.325 0.041-0.1 0.084-0.2 0.125-0.3-0.050 0.116-0.109 0.222-0.184 0.319 0.066-0.084 0.131-0.169 0.197-0.253-0.069 0.084-0.144 0.162-0.231 0.231 0.084-0.066 0.169-0.131 0.253-0.197-0.1 0.075-0.206 0.138-0.319 0.184 0.1-0.041 0.2-0.084 0.3-0.125-0.106 0.041-0.212 0.069-0.325 0.084 0.109-0.016 0.222-0.031 0.331-0.044-0.266 0.031-0.544 0.013-0.813 0.013-0.606 0-1.216 0-1.822 0-0.906 0-1.812 0-2.719 0-1.109 0-2.219 0-3.328 0-1.216 0-2.434 0-3.65 0-1.228 0-2.456 0-3.688 0-1.144 0-2.291 0-3.434 0-0.966 0-1.928 0-2.894 0-0.691 0-1.378 0-2.069 0-0.319 0-0.634 0-0.953 0-0.069 0-0.138-0.003-0.206-0.013 0.109 0.016 0.222 0.031 0.331 0.044-0.112-0.016-0.219-0.044-0.325-0.084 0.1 0.041 0.2 0.084 0.3 0.125-0.116-0.050-0.222-0.109-0.319-0.184 0.084 0.066 0.169 0.131 0.253 0.197-0.084-0.069-0.163-0.144-0.231-0.231 0.066 0.084 0.131 0.169 0.197 0.253-0.075-0.1-0.138-0.206-0.184-0.319 0.041 0.1 0.084 0.2 0.125 0.3-0.041-0.106-0.069-0.212-0.084-0.325 0.016 0.109 0.031 0.222 0.044 0.331-0.022-0.206-0.013-0.416-0.013-0.622 0-0.434 0-0.869 0-1.303 0-1.438 0-2.875 0-4.312 0-1.744 0-3.491 0-5.234 0-1.512 0-3.025 0-4.538 0-0.712-0.003-1.425 0-2.141 0-0.066 0.003-0.128 0.013-0.194-0.016 0.109-0.031 0.222-0.044 0.331 0.016-0.112 0.044-0.219 0.084-0.325-0.041 0.1-0.084 0.2-0.125 0.3 0.050-0.116 0.109-0.222 0.184-0.319-0.066 0.084-0.131 0.169-0.197 0.253 0.069-0.084 0.144-0.162 0.231-0.231-0.084 0.066-0.169 0.131-0.253 0.197 0.1-0.075 0.206-0.138 0.319-0.184-0.1 0.041-0.2 0.084-0.3 0.125 0.106-0.041 0.212-0.069 0.325-0.084-0.109 0.016-0.222 0.031-0.331 0.044 0.266-0.031 0.544-0.013 0.813-0.013 0.606 0 1.216 0 1.822 0 0.906 0 1.813 0 2.719 0 1.109 0 2.219 0 3.328 0 1.216 0 2.434 0 3.65 0 1.228 0 2.456 0 3.687 0 1.144 0 2.291 0 3.434 0 0.966 0 1.928 0 2.894 0 0.691 0 1.378 0 2.069 0 0.319 0 0.634 0 0.953 0 0.069 0 0.138 0.003 0.206 0.013-0.109-0.016-0.222-0.031-0.331-0.044 0.112 0.016 0.219 0.044 0.325 0.084-0.1-0.041-0.2-0.084-0.3-0.125 0.116 0.050 0.222 0.109 0.319 0.184-0.084-0.066-0.169-0.131-0.253-0.197 0.084 0.069 0.162 0.144 0.231 0.231-0.066-0.084-0.131-0.169-0.197-0.253 0.075 0.1 0.138 0.206 0.184 0.319-0.041-0.1-0.084-0.2-0.125-0.3 0.041 0.106 0.069 0.213 0.084 0.325-0.016-0.109-0.031-0.222-0.044-0.331 0.009 0.056 0.013 0.112 0.013 0.172 0.006 0.325 0.134 0.653 0.366 0.884 0.216 0.216 0.572 0.381 0.884 0.366 0.669-0.031 1.262-0.55 1.25-1.25-0.009-0.675-0.266-1.303-0.728-1.797-0.459-0.487-1.088-0.728-1.744-0.781-0.078-0.006-0.159-0.003-0.241-0.003-0.347 0-0.694 0-1.037 0-0.638 0-1.278 0-1.916 0-0.859 0-1.722 0-2.581 0-1.006 0-2.016 0-3.022 0-1.094 0-2.191 0-3.284 0-1.109 0-2.216 0-3.325 0-1.047 0-2.094 0-3.141 0-0.928 0-1.853 0-2.781 0-0.728 0-1.459 0-2.188 0-0.469 0-0.938 0-1.406 0-0.112 0-0.225 0-0.341 0-0.441 0-0.844 0.1-1.244 0.284-0.478 0.219-0.922 0.669-1.137 1.147-0.172 0.381-0.272 0.734-0.275 1.159 0 0.094 0 0.188 0 0.284 0 0.522 0 1.047 0 1.569 0 0.853 0 1.706 0 2.562 0 1.044 0 2.088 0 3.131 0 1.106 0 2.216 0 3.322 0 1.031 0 2.059 0 3.091 0 0.813 0 1.628 0 2.441 0 0.469 0 0.938 0 1.409 0 0.091-0.003 0.181 0.003 0.272 0.044 0.659 0.287 1.284 0.769 1.75s1.119 0.728 1.788 0.741c0.191 0.003 0.378 0 0.569 0 0.506 0 1.012 0 1.522 0 0.763 0 1.525 0 2.287 0 0.944 0 1.887 0 2.831 0 1.062 0 2.128 0 3.191 0 1.106 0 2.209 0 3.316 0 1.088 0 2.175 0 3.266 0 0.997 0 1.991 0 2.987 0 0.831 0 1.663 0 2.494 0 0.603 0 1.209 0 1.813 0 0.303 0 0.606 0 0.912 0 0.462 0 0.9-0.106 1.309-0.319 0.834-0.431 1.328-1.356 1.338-2.275 0.003-0.316 0-0.628 0-0.944 0-0.712 0-1.422 0-2.134 0-0.966 0-1.934 0-2.9 0-1.097 0-2.191 0-3.288 0-1.084 0-2.169 0-3.253 0-0.934 0-1.866 0-2.8 0-0.653 0-1.309 0-1.962 0-0.234 0-0.469 0-0.706 0-0.653-0.575-1.281-1.25-1.25-0.678 0.031-1.253 0.55-1.253 1.25z"></path>
<path d="M28.694 10.4c0 1.253 0 2.506 0 3.759 0 0.175 0 0.35 0 0.525 0.416-0.416 0.834-0.834 1.25-1.25-0.25 0-0.5 0-0.75 0-0.675 0-1.35 0-2.028 0-1 0-1.997 0-2.997 0-1.222 0-2.447 0-3.669 0-1.334 0-2.669 0-4.003 0-1.353 0-2.706 0-4.056 0-1.256 0-2.512 0-3.769 0-1.066 0-2.131 0-3.197 0-0.763 0-1.525 0-2.291 0-0.362 0-0.725-0.006-1.084 0-0.016 0-0.031 0-0.047 0 0.416 0.416 0.834 0.834 1.25 1.25 0-1.253 0-2.506 0-3.759 0-0.175 0-0.35 0-0.525-0.416 0.416-0.834 0.834-1.25 1.25 0.25 0 0.5 0 0.75 0 0.675 0 1.35 0 2.028 0 1 0 1.997 0 2.997 0 1.222 0 2.447 0 3.669 0 1.334 0 2.669 0 4.003 0 1.353 0 2.706 0 4.056 0 1.256 0 2.512 0 3.769 0 1.066 0 2.131 0 3.197 0 0.763 0 1.525 0 2.291 0 0.363 0 0.725 0.003 1.084 0 0.016 0 0.031 0 0.047 0 0.653 0 1.281-0.575 1.25-1.25-0.031-0.678-0.55-1.25-1.25-1.25-0.25 0-0.5 0-0.75 0-0.675 0-1.35 0-2.028 0-1 0-1.997 0-2.997 0-1.222 0-2.447 0-3.669 0-1.334 0-2.669 0-4.003 0-1.353 0-2.706 0-4.056 0-1.256 0-2.512 0-3.769 0-1.066 0-2.131 0-3.197 0-0.763 0-1.525 0-2.291 0-0.362 0-0.725-0.003-1.084 0-0.016 0-0.031 0-0.047 0-0.675 0-1.25 0.572-1.25 1.25 0 1.253 0 2.506 0 3.759 0 0.175 0 0.35 0 0.525 0 0.675 0.572 1.25 1.25 1.25 0.25 0 0.5 0 0.75 0 0.675 0 1.35 0 2.028 0 1 0 1.997 0 2.997 0 1.222 0 2.447 0 3.669 0 1.334 0 2.669 0 4.003 0 1.353 0 2.706 0 4.056 0 1.256 0 2.512 0 3.769 0 1.066 0 2.131 0 3.197 0 0.763 0 1.525 0 2.291 0 0.363 0 0.725 0.003 1.084 0 0.016 0 0.031 0 0.047 0 0.675 0 1.25-0.572 1.25-1.25 0-1.253 0-2.506 0-3.759 0-0.175 0-0.35 0-0.525 0-0.653-0.575-1.281-1.25-1.25-0.675 0.028-1.25 0.547-1.25 1.25zM6.581 21.644c0.872 0 1.744 0 2.616 0 1.384 0 2.769 0 4.153 0 0.319 0 0.638 0 0.953 0 0.653 0 1.281-0.575 1.25-1.25-0.031-0.678-0.55-1.25-1.25-1.25-0.872 0-1.744 0-2.616 0-1.384 0-2.769 0-4.153 0-0.319 0-0.638 0-0.953 0-0.653 0-1.281 0.575-1.25 1.25 0.028 0.678 0.547 1.25 1.25 1.25z"></path>
</symbol>
<symbol id="line" viewBox="0 0 6144 32">
<path stroke-linejoin="miter" stroke-linecap="butt" stroke-miterlimit="4" stroke-width="32" d="M0 16.002l6144-0"></path>
</symbol>
<symbol id="next" viewBox="0 0 25 32">
<path fill="#cdcfd1" style="fill: var(--color3, #cdcfd1)" d="M0.057 1.479h9.216l14.72 14.528-14.72 14.528h-9.216l14.784-14.528-14.784-14.528z"></path>
</symbol>
<symbol id="paypal" viewBox="0 0 32 32">
<path d="M27.249 9.473c-0.23-0.258-0.486-0.492-0.764-0.698 0.114-0.893 0.035-1.8-0.231-2.661s-0.714-1.653-1.312-2.326c-1.445-1.629-3.909-2.454-7.323-2.454h-8.285c-0.599 0.002-1.177 0.216-1.632 0.605s-0.757 0.927-0.852 1.518l-3.453 21.875c-0.049 0.293-0.033 0.594 0.046 0.88s0.22 0.552 0.412 0.779c0.192 0.227 0.432 0.408 0.702 0.533s0.564 0.189 0.861 0.188h3.552l-0.109 0.694c-0.044 0.279-0.027 0.565 0.049 0.837s0.211 0.524 0.395 0.739 0.411 0.388 0.668 0.506c0.257 0.118 0.536 0.18 0.819 0.18h4.312c0.559 0.004 1.101-0.19 1.528-0.55s0.714-0.859 0.806-1.41l0.854-5.375 0.014-0.073h0.398c5.376 0 8.734-2.658 9.714-7.684 0.299-1.038 0.348-2.131 0.145-3.191s-0.654-2.058-1.315-2.912zM10.456 18.272l-0.953 6.047-0.115 0.725h-3.247l3.322-21.044h8.156c2.581 0 4.423 0.539 5.323 1.552 0.425 0.494 0.721 1.085 0.862 1.721s0.124 1.297-0.052 1.924l-0.025 0.15c-0.016 0.102-0.031 0.202-0.058 0.328-0.257 1.905-1.209 3.648-2.674 4.894-1.644 1.143-3.625 1.699-5.623 1.577h-2.431c-0.6-0.002-1.181 0.212-1.638 0.602s-0.757 0.931-0.848 1.525zM25.802 15.065c-0.734 3.771-2.99 5.527-7.096 5.527h-0.644c-0.559-0.004-1.102 0.191-1.53 0.551s-0.713 0.861-0.805 1.413l-0.866 5.432-3.237 0.012 0.638-4.045 0.815-5.137h2.292c0.209 0 0.394-0.031 0.598-0.039 0.478-0.016 0.955-0.035 1.404-0.090 0.274-0.034 0.525-0.096 0.787-0.145 0.363-0.067 0.727-0.134 1.068-0.228 0.254-0.071 0.491-0.162 0.732-0.248 0.319-0.113 0.633-0.232 0.93-0.372 0.224-0.106 0.437-0.223 0.649-0.343 0.281-0.159 0.554-0.334 0.816-0.522 0.19-0.137 0.376-0.277 0.553-0.428 0.252-0.217 0.491-0.448 0.716-0.692 0.151-0.161 0.305-0.317 0.444-0.49 0.231-0.295 0.445-0.603 0.64-0.924 0.102-0.163 0.215-0.314 0.309-0.485 0.27-0.494 0.502-1.008 0.694-1.538 0.012-0.032 0.028-0.059 0.039-0.091 0.005-0.015 0.013-0.027 0.018-0.042 0.264 0.955 0.276 1.962 0.035 2.923z"></path>
</symbol>
</defs>
</svg>
