<svg width="24" height="25" viewBox="0 0 24 25" fill="none" xmlns="http://www.w3.org/2000/svg">
<path d="M20.9 2.28809H3.1C2.80826 2.28809 2.52847 2.40398 2.32218 2.61027C2.11589 2.81656 2 3.09635 2 3.38809V21.1881C2 21.3325 2.02845 21.4756 2.08373 21.609C2.13901 21.7425 2.22004 21.8638 2.32218 21.9659C2.42433 22.068 2.54559 22.1491 2.67905 22.2044C2.81251 22.2596 2.95555 22.2881 3.1 22.2881H12.68V14.5381H10.08V11.5381H12.68V9.28809C12.6261 8.75984 12.6885 8.22621 12.8627 7.72462C13.0369 7.22303 13.3188 6.76563 13.6885 6.3845C14.0582 6.00336 14.5068 5.70773 15.0028 5.51832C15.4989 5.32892 16.0304 5.25034 16.56 5.28809C17.3383 5.2833 18.1163 5.32336 18.89 5.40809V8.10809H17.3C16.04 8.10809 15.8 8.70809 15.8 9.57809V11.5081H18.8L18.41 14.5081H15.8V22.2881H20.9C21.0445 22.2881 21.1875 22.2596 21.321 22.2044C21.4544 22.1491 21.5757 22.068 21.6778 21.9659C21.78 21.8638 21.861 21.7425 21.9163 21.609C21.9715 21.4756 22 21.3325 22 21.1881V3.38809C22 3.24363 21.9715 3.10059 21.9163 2.96713C21.861 2.83368 21.78 2.71241 21.6778 2.61027C21.5757 2.50812 21.4544 2.4271 21.321 2.37182C21.1875 2.31654 21.0445 2.28809 20.9 2.28809Z" fill="white"/>
</svg>
