<svg width="28" height="31" viewBox="0 0 28 31" fill="none" xmlns="http://www.w3.org/2000/svg">
<g filter="url(#filter0_d)">
<path d="M19.34 5.74809C19.1027 5.74809 18.8707 5.81846 18.6733 5.95032C18.476 6.08218 18.3222 6.26959 18.2313 6.48887C18.1405 6.70814 18.1168 6.94942 18.1631 7.18219C18.2094 7.41497 18.3236 7.62879 18.4915 7.79661C18.6593 7.96444 18.8731 8.07873 19.1059 8.12503C19.3387 8.17133 19.5799 8.14757 19.7992 8.05674C20.0185 7.96592 20.2059 7.81211 20.3378 7.61477C20.4696 7.41743 20.54 7.18542 20.54 6.94809C20.54 6.62983 20.4136 6.3246 20.1885 6.09956C19.9635 5.87451 19.6583 5.74809 19.34 5.74809ZM23.94 8.16809C23.9206 7.33838 23.7652 6.51749 23.48 5.73809C23.2257 5.07122 22.83 4.46736 22.32 3.96809C21.8248 3.45551 21.2196 3.06226 20.55 2.81809C19.7727 2.52425 18.9508 2.3653 18.12 2.34809C17.06 2.28809 16.72 2.28809 14 2.28809C11.28 2.28809 10.94 2.28809 9.88 2.34809C9.04915 2.3653 8.22734 2.52425 7.45 2.81809C6.78168 3.06473 6.17693 3.45765 5.68 3.96809C5.16743 4.46326 4.77418 5.06853 4.53 5.73809C4.23616 6.51543 4.07721 7.33724 4.06 8.16809C4 9.22809 4 9.56809 4 12.2881C4 15.0081 4 15.3481 4.06 16.4081C4.07721 17.2389 4.23616 18.0607 4.53 18.8381C4.77418 19.5076 5.16743 20.1129 5.68 20.6081C6.17693 21.1185 6.78168 21.5114 7.45 21.7581C8.22734 22.0519 9.04915 22.2109 9.88 22.2281C10.94 22.2881 11.28 22.2881 14 22.2881C16.72 22.2881 17.06 22.2881 18.12 22.2281C18.9508 22.2109 19.7727 22.0519 20.55 21.7581C21.2196 21.5139 21.8248 21.1207 22.32 20.6081C22.8322 20.1107 23.2283 19.5063 23.48 18.8381C23.7652 18.0587 23.9206 17.2378 23.94 16.4081C23.94 15.3481 24 15.0081 24 12.2881C24 9.56809 24 9.22809 23.94 8.16809ZM22.14 16.2881C22.1327 16.9229 22.0178 17.5518 21.8 18.1481C21.6403 18.5833 21.3839 18.9765 21.05 19.2981C20.7256 19.6286 20.3332 19.8845 19.9 20.0481C19.3037 20.2658 18.6748 20.3808 18.04 20.3881C17.04 20.4381 16.67 20.4481 14.04 20.4481C11.41 20.4481 11.04 20.4481 10.04 20.3881C9.38089 20.4004 8.72459 20.2989 8.1 20.0881C7.68578 19.9162 7.31136 19.6609 7 19.3381C6.66809 19.0168 6.41484 18.6233 6.26 18.1881C6.01586 17.5832 5.88044 16.94 5.86 16.2881C5.86 15.2881 5.8 14.9181 5.8 12.2881C5.8 9.65809 5.8 9.28809 5.86 8.28809C5.86448 7.63914 5.98295 6.99603 6.21 6.38809C6.38605 5.966 6.65627 5.58974 7 5.28809C7.30381 4.94425 7.67929 4.67118 8.1 4.48809C8.70955 4.26813 9.352 4.15317 10 4.14809C11 4.14809 11.37 4.08809 14 4.08809C16.63 4.08809 17 4.08809 18 4.14809C18.6348 4.15537 19.2637 4.27033 19.86 4.48809C20.3144 4.65674 20.7223 4.93093 21.05 5.28809C21.3777 5.59526 21.6338 5.97082 21.8 6.38809C22.0223 6.99702 22.1373 7.63987 22.14 8.28809C22.19 9.28809 22.2 9.65809 22.2 12.2881C22.2 14.9181 22.19 15.2881 22.14 16.2881ZM14 7.15809C12.9858 7.16006 11.995 7.46261 11.1527 8.0275C10.3103 8.5924 9.65438 9.39428 9.26763 10.3318C8.88089 11.2694 8.78072 12.3006 8.97979 13.295C9.17886 14.2895 9.66824 15.2026 10.3861 15.9191C11.1039 16.6355 12.018 17.1231 13.0129 17.3202C14.0077 17.5174 15.0387 17.4152 15.9755 17.0266C16.9123 16.6381 17.7129 15.9805 18.2761 15.1371C18.8394 14.2937 19.14 13.3023 19.14 12.2881C19.1413 11.6132 19.0092 10.9447 18.7512 10.321C18.4933 9.69739 18.1146 9.1309 17.6369 8.65414C17.1592 8.17738 16.5919 7.79976 15.9678 7.54302C15.3436 7.28627 14.6749 7.15545 14 7.15809ZM14 15.6181C13.3414 15.6181 12.6976 15.4228 12.15 15.0569C11.6023 14.691 11.1755 14.1709 10.9235 13.5624C10.6714 12.9539 10.6055 12.2844 10.734 11.6384C10.8625 10.9925 11.1796 10.3991 11.6453 9.93342C12.111 9.46771 12.7044 9.15056 13.3503 9.02207C13.9963 8.89358 14.6659 8.95953 15.2743 9.21157C15.8828 9.46361 16.4029 9.89042 16.7688 10.438C17.1347 10.9857 17.33 11.6295 17.33 12.2881C17.33 12.7254 17.2439 13.1584 17.0765 13.5624C16.9092 13.9664 16.6639 14.3335 16.3547 14.6428C16.0454 14.952 15.6784 15.1973 15.2743 15.3646C14.8703 15.532 14.4373 15.6181 14 15.6181Z" fill="white"/>
</g>
<defs>
<filter id="filter0_d" x="-2" y="0.288086" width="32" height="32" filterUnits="userSpaceOnUse" color-interpolation-filters="sRGB">
<feFlood flood-opacity="0" result="BackgroundImageFix"/>
<feColorMatrix in="SourceAlpha" type="matrix" values="0 0 0 0 0 0 0 0 0 0 0 0 0 0 0 0 0 0 127 0" result="hardAlpha"/>
<feOffset dy="4"/>
<feGaussianBlur stdDeviation="2"/>
<feComposite in2="hardAlpha" operator="out"/>
<feColorMatrix type="matrix" values="0 0 0 0 0 0 0 0 0 0 0 0 0 0 0 0 0 0 0.25 0"/>
<feBlend mode="normal" in2="BackgroundImageFix" result="effect1_dropShadow"/>
<feBlend mode="normal" in="SourceGraphic" in2="effect1_dropShadow" result="shape"/>
</filter>
</defs>
</svg>
