<svg width="48" height="48" viewBox="0 0 48 48" fill="none" xmlns="http://www.w3.org/2000/svg">
<path d="M37.5 24.1999C37.5 23.7892 37.3419 23.3954 37.0606 23.105C36.7793 22.8146 36.3978 22.6515 36 22.6515L15.615 22.6515L17.565 20.6541C17.8474 20.3625 18.0061 19.9671 18.0061 19.5547C18.0061 19.1424 17.8474 18.7469 17.565 18.4554C17.2825 18.1638 16.8994 18 16.5 18C16.1005 18 15.7174 18.1638 15.435 18.4554L10.935 23.1005C10.7268 23.3183 10.5858 23.5948 10.5298 23.8951C10.4737 24.1955 10.5051 24.5063 10.62 24.7883C10.7325 25.071 10.9236 25.3131 11.1692 25.4839C11.4148 25.6548 11.7038 25.7467 12 25.7483L36 25.7483C36.3978 25.7483 36.7793 25.5851 37.0606 25.2948C37.3419 25.0044 37.5 24.6105 37.5 24.1999Z" fill="#CDCFD1"/>
<path d="M18 28.845C18.0012 28.6412 17.9633 28.4392 17.8887 28.2506C17.814 28.0619 17.7041 27.8903 17.565 27.7457L13.065 23.1005C12.7826 22.8089 12.3995 22.6451 12 22.6451C11.8022 22.6451 11.6064 22.6854 11.4237 22.7635C11.2409 22.8416 11.0749 22.9561 10.935 23.1005C10.7952 23.2449 10.6842 23.4163 10.6085 23.6049C10.5329 23.7935 10.4939 23.9957 10.4939 24.1999C10.4939 24.6122 10.6526 25.0076 10.935 25.2992L15.435 29.9444C15.5745 30.0895 15.7404 30.2047 15.9232 30.2833C16.106 30.3619 16.302 30.4024 16.5 30.4024C16.6981 30.4024 16.8941 30.3619 17.0769 30.2833C17.2597 30.2047 17.4256 30.0895 17.565 29.9444C17.7041 29.7997 17.814 29.6281 17.8887 29.4395C17.9633 29.2508 18.0012 29.0488 18 28.845Z" fill="#CDCFD1"/>
</svg>
