<svg width="0" height="0" class="hidden">
  <symbol  xmlns="http://www.w3.org/2000/svg" viewBox="0 0 24 24" id="cart">
    <path d="M8.5 19C8.20333 19 7.91332 19.088 7.66664 19.2528C7.41997 19.4176 7.22771 19.6519 7.11418 19.926C7.00065 20.2001 6.97094 20.5017 7.02882 20.7926C7.0867 21.0836 7.22956 21.3509 7.43934 21.5607C7.64912 21.7704 7.91639 21.9133 8.20736 21.9712C8.49834 22.0291 8.79994 21.9993 9.07403 21.8858C9.34811 21.7723 9.58238 21.58 9.7472 21.3334C9.91203 21.0867 10 20.7967 10 20.5C10 20.1022 9.84196 19.7206 9.56066 19.4393C9.27936 19.158 8.89782 19 8.5 19ZM19 16H7C6.73478 16 6.48043 15.8946 6.29289 15.7071C6.10536 15.5196 6 15.2652 6 15C6 14.7348 6.10536 14.4804 6.29289 14.2929C6.48043 14.1054 6.73478 14 7 14H15.4912C16.1426 13.9979 16.7758 13.7847 17.2959 13.3925C17.816 13.0002 18.195 12.45 18.376 11.8242L19.9614 6.2749C20.004 6.12607 20.0114 5.9694 19.9831 5.81722C19.9548 5.66505 19.8915 5.52152 19.7983 5.39793C19.7051 5.27435 19.5845 5.17408 19.446 5.10503C19.3075 5.03598 19.1548 5.00003 19 5H6.73907C6.53206 4.41736 6.15044 3.91271 5.64622 3.55481C5.14201 3.19692 4.53971 3.00318 3.92139 3H3C2.73478 3 2.48043 3.10536 2.29289 3.29289C2.10536 3.48043 2 3.73478 2 4C2 4.26522 2.10536 4.51957 2.29289 4.70711C2.48043 4.89464 2.73478 5 3 5H3.92139C4.13847 5.00076 4.34947 5.07182 4.52279 5.20253C4.6961 5.33325 4.82242 5.51659 4.88281 5.7251L5.03833 6.26984L5.03857 6.2749L6.6792 12.0171C5.91576 12.0992 5.21287 12.4709 4.71527 13.0557C4.21766 13.6405 3.96321 14.3938 4.00433 15.1606C4.04544 15.9273 4.37898 16.6491 4.93626 17.1773C5.49355 17.7055 6.23216 18 7 18H19C19.2652 18 19.5196 17.8946 19.7071 17.7071C19.8946 17.5196 20 17.2652 20 17C20 16.7348 19.8946 16.4804 19.7071 16.2929C19.5196 16.1054 19.2652 16 19 16ZM17.6743 7L16.4531 11.2744C16.3928 11.4831 16.2664 11.6666 16.093 11.7974C15.9196 11.9282 15.7084 11.9993 15.4912 12H8.75439L8.49945 11.1078L7.32642 7H17.6743ZM16.5 19C16.2033 19 15.9133 19.088 15.6666 19.2528C15.42 19.4176 15.2277 19.6519 15.1142 19.926C15.0006 20.2001 14.9709 20.5017 15.0288 20.7926C15.0867 21.0836 15.2296 21.3509 15.4393 21.5607C15.6491 21.7704 15.9164 21.9133 16.2074 21.9712C16.4983 22.0291 16.7999 21.9993 17.074 21.8858C17.3481 21.7723 17.5824 21.58 17.7472 21.3334C17.912 21.0867 18 20.7967 18 20.5C18 20.1022 17.842 19.7206 17.5607 19.4393C17.2794 19.158 16.8978 19 16.5 19Z"  ></path>
  </symbol>
  <symbol  xmlns="http://www.w3.org/2000/svg" viewBox="0 0 96 96" id="category1">
    <path d="M74.948 29.38C74.624 28.5701 74.1272 27.8406 73.4923 27.2423C72.8574 26.6441 72.0997 26.1914 71.272 25.916L61.82 22.764L59.296 17.716C58.8001 16.7172 58.0344 15.8772 57.0857 15.2912C56.137 14.7051 55.0432 14.3964 53.928 14.4H42.872C41.7569 14.3964 40.6631 14.7051 39.7144 15.2912C38.7657 15.8772 38 16.7172 37.504 17.716L34.98 22.764L25.528 25.916C24.7003 26.1914 23.9426 26.6441 23.3078 27.2423C22.6729 27.8406 22.1761 28.5701 21.852 29.38L15.116 46.224C14.6408 47.4051 14.3977 48.6668 14.4 49.94V74.4C14.4 75.4608 14.8215 76.4783 15.5716 77.2284C16.3218 77.9785 17.3392 78.4 18.4 78.4H22.4C23.4609 78.4 24.4783 77.9785 25.2285 77.2284C25.9786 76.4783 26.4 75.4608 26.4 74.4V68.696L28.4 62.024V66.512C28.518 68.767 29.2061 70.9553 30.4 72.872V78.4C30.4 79.4608 30.8215 80.4783 31.5716 81.2284C32.3218 81.9785 33.3392 82.4 34.4 82.4H62.4C63.4609 82.4 64.4783 81.9785 65.2285 81.2284C65.9786 80.4783 66.4 79.4608 66.4 78.4V72.872C67.5941 70.9553 68.2822 68.767 68.4 66.512V62.024L70.4 68.696V74.4C70.4 75.4608 70.8215 76.4783 71.5716 77.2284C72.3218 77.9785 73.3392 78.4 74.4 78.4H78.4C79.4609 78.4 80.4783 77.9785 81.2285 77.2284C81.9786 76.4783 82.4 75.4608 82.4 74.4V49.94C82.4027 48.6681 82.1596 47.4076 81.684 46.228L74.948 29.38ZM70.356 29.92C68.2228 33.1279 66.2691 36.4517 64.504 39.876C64.292 40.676 64.472 39.748 64.4 62.4C62.8087 62.4 61.2826 61.7678 60.1574 60.6426C59.0322 59.5174 58.4 57.9913 58.4 56.4C58.4 55.8695 58.1893 55.3608 57.8143 54.9858C57.4392 54.6107 56.9305 54.4 56.4 54.4C55.8696 54.4 55.3609 54.6107 54.9858 54.9858C54.6108 55.3608 54.4 55.8695 54.4 56.4C54.4 59.0521 55.4536 61.5957 57.329 63.471C59.2043 65.3464 61.7479 66.4 64.4 66.4V66.512C64.3169 67.8904 63.8922 69.2266 63.164 70.4H50.4V33.472L60.696 26.608C72.12 30.492 69.56 29.456 70.356 29.92ZM40 21.704L42.476 26.036L38.996 23.716L40 21.704ZM56.832 21.704L57.836 23.704L54.356 26.024L56.832 21.704ZM54.088 18.44L48.4 28.368L42.728 18.44C43.54 18.4 53.256 18.4 54.072 18.44H54.088ZM36.104 26.608L46.4 33.472V70.4H33.636C32.9018 69.2294 32.4765 67.8917 32.4 66.512V66.4C35.0522 66.4 37.5957 65.3464 39.4711 63.471C41.3465 61.5957 42.4 59.0521 42.4 56.4C42.4 55.8695 42.1893 55.3608 41.8143 54.9858C41.4392 54.6107 40.9305 54.4 40.4 54.4C39.8696 54.4 39.3609 54.6107 38.9858 54.9858C38.6108 55.3608 38.4 55.8695 38.4 56.4C38.4 57.9913 37.7679 59.5174 36.6427 60.6426C35.5175 61.7678 33.9913 62.4 32.4 62.4C32.328 39.752 32.508 40.656 32.296 39.876C30.5323 36.451 28.5785 33.1271 26.444 29.92C27.056 29.56 32.024 28 36.104 26.608ZM18.4 74.4V70.4H22.4V74.4H18.4ZM28.148 48.952L22.912 66.4H18.4V49.94C18.3997 49.1769 18.545 48.4207 18.828 47.712L24.28 34.088L28.4 40.952V47.228C28.4004 47.8118 28.3155 48.3926 28.148 48.952ZM34.4 78.4V74.4H62.4V78.4H34.4ZM68.4 47.228V40.952L72.52 34.088L77.972 47.716C78.2559 48.423 78.4012 49.1781 78.4 49.94V66.4H73.888L68.652 48.948C68.4843 48.3901 68.3994 47.8106 68.4 47.228ZM74.4 74.4V70.4H78.4V74.4H74.4Z" ></path>
  </symbol>
  <symbol  xmlns="http://www.w3.org/2000/svg" viewBox="0 0 96 96" id="category2">
    <path d="M34.1712 78H62.1712C63.2321 78 64.2495 77.5786 64.9996 76.8284C65.7498 76.0783 66.1712 75.0609 66.1712 74V40.828L69.3432 44C70.1047 44.7281 71.1176 45.1345 72.1712 45.1345C73.2248 45.1345 74.2377 44.7281 74.9992 44L80.1712 38.828C80.9211 38.0779 81.3423 37.0607 81.3423 36C81.3423 34.9394 80.9211 33.9221 80.1712 33.172L66.7552 19.756C66.1996 19.1977 65.5388 18.755 64.811 18.4536C64.0832 18.1521 63.3029 17.998 62.5152 18H33.8272C33.0395 17.998 32.2592 18.1521 31.5314 18.4536C30.8036 18.755 30.1428 19.1977 29.5872 19.756L16.1712 33.172C15.4213 33.9221 15.0001 34.9394 15.0001 36C15.0001 37.0607 15.4213 38.0779 16.1712 38.828L21.3432 44C22.1047 44.7281 23.1176 45.1345 24.1712 45.1345C25.2248 45.1345 26.2377 44.7281 26.9992 44L30.1712 40.828V74C30.1712 75.0609 30.5926 76.0783 31.3428 76.8284C32.0929 77.5786 33.1103 78 34.1712 78ZM53.8032 22C53.3959 23.1691 52.6349 24.1825 51.6257 24.8996C50.6165 25.6166 49.4092 26.0019 48.1712 26.0019C46.9332 26.0019 45.7259 25.6166 44.7167 24.8996C43.7075 24.1825 42.9465 23.1691 42.5392 22H53.8032ZM24.1712 41.172L18.9992 36L32.4152 22.584C32.79 22.2101 33.2978 22.0001 33.8272 22H38.3752C38.8342 24.2606 40.0607 26.293 41.8467 27.7528C43.6327 29.2126 45.8685 30.01 48.1752 30.01C50.4819 30.01 52.7177 29.2126 54.5037 27.7528C56.2897 26.293 57.5162 24.2606 57.9752 22H62.5232C63.0526 22.0001 63.5604 22.2101 63.9352 22.584L77.3432 36L72.1712 41.172L65.5872 34.584C65.3075 34.3036 64.9508 34.1125 64.5624 34.0351C64.1739 33.9576 63.7712 33.9972 63.4054 34.1489C63.0395 34.3005 62.7268 34.5574 62.5071 34.887C62.2874 35.2166 62.1705 35.6039 62.1712 36V74H34.1712V36C34.1719 35.6039 34.055 35.2166 33.8353 34.887C33.6156 34.5574 33.303 34.3005 32.9371 34.1489C32.5712 33.9972 32.1685 33.9576 31.78 34.0351C31.3916 34.1125 31.0349 34.3036 30.7552 34.584L24.1712 41.172Z"   ></path>
  </symbol>
  <symbol  xmlns="http://www.w3.org/2000/svg" viewBox="0 0 96 96" id="category3">
    <path d="M62 14H33.7599C32.7407 13.998 31.7591 14.3853 31.0157 15.0826C30.2723 15.7799 29.8231 16.7347 29.7599 17.752L26.0079 77.752C25.9735 78.2981 26.0514 78.8455 26.2369 79.3602C26.4225 79.875 26.7116 80.3462 27.0866 80.7448C27.4615 81.1433 27.9142 81.4607 28.4167 81.6773C28.9192 81.8939 29.4608 82.0051 30.0079 82.004H38.1879C39.1348 82.0036 40.0507 81.6673 40.7729 81.055C41.4951 80.4427 41.9767 79.594 42.1319 78.66L47.8799 44.168L53.6279 78.66C53.7841 79.5933 54.266 80.441 54.9881 81.0525C55.7102 81.664 56.6257 81.9997 57.5719 82H65.7519C66.2988 82.0011 66.84 81.89 67.3422 81.6736C67.8444 81.4573 68.2969 81.1403 68.6718 80.7422C69.0467 80.344 69.3359 79.8733 69.5217 79.359C69.7075 78.8447 69.7859 78.2978 69.7519 77.752L66 17.752C65.9368 16.7347 65.4876 15.7799 64.7442 15.0826C64.0008 14.3853 63.0192 13.998 62 14ZM62 18L62.4399 25.044C61.0794 24.4375 59.9243 23.449 59.1148 22.1986C58.3054 20.9481 57.8764 19.4896 57.8799 18H62ZM37.8799 18C37.883 19.4895 37.4538 20.9478 36.6444 22.1982C35.835 23.4485 34.6801 24.4371 33.3199 25.044L33.7599 18H37.8799ZM57.5719 78L49.8519 31.672C49.7731 31.206 49.5319 30.783 49.1709 30.4779C48.8099 30.1729 48.3526 30.0055 47.8799 30.0055C47.4073 30.0055 46.95 30.1729 46.589 30.4779C46.228 30.783 45.9868 31.206 45.9079 31.672L38.1879 78H30.0079L33.0319 29.66C35.5138 28.8407 37.6885 27.2874 39.2684 25.2054C40.8483 23.1234 41.759 20.6108 41.8799 18H45.8799V24C45.8799 24.5304 46.0907 25.0391 46.4657 25.4142C46.8408 25.7893 47.3495 26 47.8799 26C48.4104 26 48.9191 25.7893 49.2942 25.4142C49.6692 25.0391 49.8799 24.5304 49.8799 24V18H53.8799C54.0009 20.6108 54.9116 23.1234 56.4915 25.2054C58.0714 27.2874 60.2461 28.8407 62.7279 29.66L65.7519 78H57.5719Z"   ></path>
  </symbol>
  <symbol  xmlns="http://www.w3.org/2000/svg" viewBox="0 0 96 96" id="category4">
    <path d="M78.0016 28.1224H57.2377C56.5219 28.1233 55.8197 28.3174 55.2051 28.6842C54.5904 29.051 54.0862 29.5769 53.7457 30.2064C53.4738 29.0249 52.9371 27.9207 52.1759 26.9771C51.4147 26.0335 50.449 25.2753 49.3518 24.7596C48.2546 24.244 47.0545 23.9845 45.8423 24.0007C44.63 24.0169 43.4373 24.3085 42.3543 24.8533C41.2713 25.398 40.3262 26.1819 39.5905 27.1455C38.8549 28.1091 38.3478 29.2273 38.1078 30.4157C37.8677 31.604 37.9008 32.8313 38.2046 34.005C38.5085 35.1786 39.0751 36.2679 39.8617 37.1904C39.3817 37.2904 36.6016 37.9304 35.5176 38.1824C35.0138 38.3206 34.5841 38.6504 34.3203 39.1013C34.0565 39.5522 33.9796 40.0885 34.1061 40.5953C34.2325 41.1022 34.5523 41.5395 34.997 41.8137C35.4417 42.0878 35.976 42.1771 36.4857 42.0624C39.9672 41.0631 43.5493 40.4553 47.1657 40.2504C44.1771 42.7607 40.3966 44.1323 36.4937 44.1224C31.3376 44.1256 26.3303 45.8507 22.2664 49.024C18.2025 52.1973 15.3148 56.637 14.0616 61.6384C13.9536 62.0744 14.0257 63.8264 14.0017 66.1224C14.0017 66.9104 14.1568 67.6906 14.4584 68.4185C14.7599 69.1465 15.2019 69.8079 15.759 70.3651C16.3162 70.9222 16.9776 71.3642 17.7055 71.6657C18.4335 71.9672 19.2137 72.1224 20.0017 72.1224H54.3457C55.9349 72.1173 57.4581 71.4864 58.5857 70.3664L60.0017 68.9504L61.4177 70.3664C62.5452 71.4864 64.0684 72.1173 65.6576 72.1224H76.0017C77.5929 72.1224 79.1191 71.4903 80.2443 70.3651C81.3695 69.2398 82.0016 67.7137 82.0016 66.1224V32.1224C82.0016 31.0616 81.5802 30.0441 80.8301 29.294C80.0799 28.5439 79.0625 28.1224 78.0016 28.1224ZM46.0017 36.1224C45.2105 36.1224 44.4372 35.8878 43.7794 35.4483C43.1216 35.0088 42.6089 34.3841 42.3061 33.6532C42.0034 32.9223 41.9242 32.118 42.0785 31.3421C42.2328 30.5661 42.6138 29.8534 43.1732 29.294C43.7326 28.7346 44.4454 28.3536 45.2213 28.1993C45.9972 28.0449 46.8015 28.1242 47.5324 28.4269C48.2633 28.7297 48.888 29.2423 49.3275 29.9001C49.7671 30.5579 50.0017 31.3313 50.0017 32.1224V36.1224H46.0017ZM36.4937 48.1224C38.4942 48.1193 40.4839 47.8283 42.4017 47.2584C43.0851 48.0599 43.8143 48.8212 44.5856 49.5384C44.9612 49.914 45.4705 50.125 46.0017 50.125C46.5328 50.125 47.0421 49.914 47.4177 49.5384C47.7932 49.1629 48.0042 48.6535 48.0042 48.1224C48.0042 47.5913 47.7932 47.082 47.4177 46.7064L46.3137 45.6024C46.8137 45.3304 47.3136 45.0544 47.7896 44.7384L50.5897 47.5384C50.9652 47.914 51.4746 48.125 52.0057 48.125C52.5368 48.125 53.0461 47.914 53.4216 47.5384C53.7972 47.1629 54.0082 46.6535 54.0082 46.1224C54.0082 45.5913 53.7972 45.082 53.4216 44.7064L50.9137 42.2024C51.3137 41.8024 51.7136 41.4024 52.0577 41.0024L54.5897 43.5384C54.7756 43.7244 54.9964 43.8719 55.2393 43.9725C55.4823 44.0732 55.7427 44.125 56.0057 44.125C56.2686 44.125 56.529 44.0732 56.772 43.9725C57.0149 43.8719 57.2357 43.7244 57.4216 43.5384C57.6076 43.3525 57.7551 43.1317 57.8557 42.8888C57.9564 42.6458 58.0082 42.3854 58.0082 42.1224C58.0082 41.8595 57.9564 41.5991 57.8557 41.3561C57.7551 41.1131 57.6076 40.8924 57.4216 40.7064L54.3817 37.6704C55.6897 35.3624 55.8897 34.7584 57.2417 32.1224H78.0016V60.1224H18.7456C20.1643 56.5765 22.6139 53.5376 25.7778 51.3983C28.9417 49.2591 32.6744 48.118 36.4937 48.1224ZM76.0017 68.1224H65.6576C64.3937 68.1224 63.9417 67.0864 62.8297 66.1224C62.0673 65.3961 61.0546 64.991 60.0017 64.991C58.9487 64.991 57.9361 65.3961 57.1737 66.1224C56.0577 67.0904 55.6057 68.1224 54.3457 68.1224H20.0017C19.4712 68.1224 18.9625 67.9117 18.5874 67.5366C18.2124 67.1616 18.0017 66.6529 18.0017 66.1224V64.1224H78.0016V66.1224C78.0016 66.6529 77.7909 67.1616 77.4159 67.5366C77.0408 67.9117 76.5321 68.1224 76.0017 68.1224Z"  ></path>
  </symbol>
  <symbol  xmlns="http://www.w3.org/2000/svg" viewBox="0 0 96 96" id="category5">
    <g filter="url(#filter0_d)">
      <path d="M24.0001 67.172C24.1246 71.6218 25.3844 75.966 27.6601 79.792C27.9926 80.4556 28.5032 81.0135 29.1347 81.4035C29.7663 81.7934 30.4938 82 31.2361 82H48.4361C49.329 82.0006 50.1965 81.7025 50.9003 81.153C51.6042 80.6036 52.104 79.8344 52.3201 78.968L54.0001 72.248L55.6801 78.968C55.8962 79.8344 56.3959 80.6036 57.0998 81.153C57.8037 81.7025 58.6711 82.0006 59.5641 82H64.7641C65.5078 82 66.2368 81.7926 66.8692 81.4011C67.5016 81.0097 68.0124 80.4497 68.3441 79.784C70.6209 75.9617 71.8797 71.6194 72.0001 67.172C72.0001 55.404 64.0001 51.724 64.0001 47.212C64.0001 41.612 72.0001 40.656 72.0001 32.788C72.0001 24.272 64.0001 25.136 64.0001 19.844V18C64.0001 16.9391 63.5787 15.9217 62.8285 15.1716C62.0784 14.4214 61.0609 14 60.0001 14H56.0001C54.9392 14 53.9218 14.4214 53.1716 15.1716C52.4215 15.9217 52.0001 16.9391 52.0001 18V20.4C52.0008 21.1796 51.8087 21.9473 51.4409 22.6347C51.0731 23.3222 50.541 23.908 49.8921 24.34C49.1818 24.8128 48.5444 25.3869 48.0001 26.044C47.4558 25.3869 46.8184 24.8128 46.1081 24.34C45.4591 23.908 44.927 23.3222 44.5592 22.6347C44.1915 21.9473 43.9994 21.1796 44.0001 20.4V18C44.0001 16.9391 43.5786 15.9217 42.8285 15.1716C42.0784 14.4214 41.0609 14 40.0001 14H36.0001C34.9392 14 33.9218 14.4214 33.1716 15.1716C32.4215 15.9217 32.0001 16.9391 32.0001 18V19.844C32.0027 20.7218 31.7599 21.5829 31.2991 22.33C30.8383 23.0771 30.1777 23.6805 29.3921 24.072C27.7673 24.8774 26.4008 26.1221 25.4478 27.6648C24.4947 29.2076 23.9931 30.9866 24.0001 32.8C24.0001 40.576 32.0001 41.704 32.0001 47.292C32.0001 51.564 24.0001 55.496 24.0001 67.172ZM28.0001 32.772C28.0001 26.476 36.0001 28.148 36.0001 19.828V18H40.0001V20.4C39.9979 21.8387 40.3523 23.2555 41.0314 24.5238C41.7106 25.7921 42.6934 26.8723 43.8921 27.668C44.5399 28.0993 45.0713 28.6838 45.439 29.3697C45.8067 30.0556 45.9995 30.8217 46.0001 31.6C46.0001 32.1304 46.2108 32.6391 46.5859 33.0142C46.9609 33.3893 47.4696 33.6 48.0001 33.6C48.5305 33.6 49.0392 33.3893 49.4143 33.0142C49.7894 32.6391 50.0001 32.1304 50.0001 31.6C49.9994 30.8204 50.1915 30.0527 50.5592 29.3653C50.927 28.6778 51.4591 28.092 52.1081 27.66C53.3056 26.8651 54.2877 25.7861 54.9668 24.5193C55.6459 23.2525 56.0009 21.8373 56.0001 20.4V18H60.0001V19.844C60.0001 28.244 68.0001 26.436 68.0001 32.788C68.0001 38.436 60.0001 39.34 60.0001 47.28C60.0001 54.3 68.0001 56.164 68.0001 67.172C67.8633 70.9978 66.7508 74.7252 64.7681 78H59.5681L55.9441 63.516C55.7943 63.1228 55.5286 62.7844 55.1821 62.5456C54.8357 62.3069 54.4248 62.179 54.0041 62.179C53.5833 62.179 53.1725 62.3069 52.826 62.5456C52.4796 62.7844 52.2139 63.1228 52.0641 63.516L48.4361 78H31.2361C29.2528 74.7252 28.1389 70.998 28.0001 67.172C28.0001 56.276 36.0001 54.336 36.0001 47.212C36.0001 39.276 28.0001 38.5 28.0001 32.8V32.772Z"   ></path>
    </g>
    <defs>
      <filter id="filter0_d" x="-4" y="0" width="104" height="104" filterUnits="userSpaceOnUse" color-interpolation-filters="sRGB">
        <feFlood flood-opacity="0" result="BackgroundImageFix"></feFlood>
        <feColorMatrix in="SourceAlpha" type="matrix" values="0 0 0 0 0 0 0 0 0 0 0 0 0 0 0 0 0 0 127 0" result="hardAlpha"></feColorMatrix>
        <feOffset dy="4"></feOffset>
        <feGaussianBlur stdDeviation="2"></feGaussianBlur>
        <feComposite in2="hardAlpha" operator="out"></feComposite>
        <feColorMatrix type="matrix" values="0 0 0 0 0 0 0 0 0 0 0 0 0 0 0 0 0 0 0.25 0"></feColorMatrix>
        <feBlend mode="normal" in2="BackgroundImageFix" result="effect1_dropShadow"></feBlend>
        <feBlend mode="normal" in="SourceGraphic" in2="effect1_dropShadow" result="shape"></feBlend>
      </filter>
    </defs>
  </symbol>
  <symbol  xmlns="http://www.w3.org/2000/svg" viewBox="0 0 96 96" id="category6">
    <path d="M48 20C28.932 20 14 28.8 14 40V56C14 65.132 24.372 73.024 39.276 75.316C40.116 75.7591 41.0503 75.9936 42 76H54C54.9497 75.9936 55.884 75.7591 56.724 75.316C71.628 73.024 82 65.132 82 56V40C82 28.8 67.068 20 48 20ZM18 56V49.552C23.1606 54.5681 29.7606 57.845 36.876 58.924C36.3083 59.85 36.0053 60.9139 36 62V70C36 70.208 36.04 70.4 36.06 70.608C25.384 68.064 18 62.272 18 56ZM56 70C55.9793 70.5238 55.7619 71.0206 55.3912 71.3912C55.0206 71.7619 54.5238 71.9793 54 72H50V68H52C52.5304 68 53.0391 67.7893 53.4142 67.4142C53.7893 67.0391 54 66.5304 54 66C54 65.4696 53.7893 64.9609 53.4142 64.5858C53.0391 64.2107 52.5304 64 52 64H50V60H54C54.5304 60 55.0391 60.2107 55.4142 60.5858C55.7893 60.9609 56 61.4696 56 62V70ZM40 70V62C40 61.4696 40.2107 60.9609 40.5858 60.5858C40.9609 60.2107 41.4696 60 42 60H46V64C45.4696 64 44.9609 64.2107 44.5858 64.5858C44.2107 64.9609 44 65.4696 44 66C44 66.5304 44.2107 67.0391 44.5858 67.4142C44.9609 67.7893 45.4696 68 46 68V72H42C41.4756 71.9811 40.9778 71.7644 40.6067 71.3933C40.2356 71.0222 40.0189 70.5244 40 70ZM59.536 52.46C59.936 47.616 54.856 44.672 50 44.112V40.112C59.404 40.932 65.752 47.296 59.536 52.46ZM40 52C40 50.112 43.42 48 48 48C52.352 48 55.6 50.112 55.6 52C55.6 53.888 52.352 56 48 56C44.744 56 40 54.484 40 52ZM46 44.132C40.264 44.752 36 47.968 36 51.992C30.4 46.592 37.388 40.864 46 40.12V44.132ZM65.232 51.332C65.7106 50.2847 65.9719 49.1512 66 48C66 41.268 58.092 36 48 36C37.908 36 30 41.268 30 48C30.0265 49.1552 30.2878 50.293 30.768 51.344C29.437 50.5986 28.3074 49.5406 27.4767 48.2611C26.646 46.9816 26.1392 45.5191 26 44C26 37.496 36.076 32 48 32C59.924 32 70 37.496 70 44C69.8608 45.5191 69.354 46.9816 68.5233 48.2611C67.6926 49.5406 66.563 50.5986 65.232 51.344V51.332ZM78 56C78 62.272 70.616 68.064 59.94 70.608C59.96 70.404 60 70.208 60 70V62C59.9947 60.9139 59.6917 59.85 59.124 58.924C66.2394 57.845 72.8394 54.5681 78 49.552V56ZM72.828 48.844C73.5924 47.3433 73.9938 45.6841 74 44C74 35.028 62.58 28 48 28C33.42 28 22 35.028 22 44C22.0066 45.6841 22.408 47.3431 23.172 48.844C21.6916 47.8629 20.4556 46.5556 19.5591 45.0225C18.6625 43.4895 18.1292 41.7713 18 40C18 31.328 31.74 24 48 24C64.26 24 78 31.328 78 40C77.8708 41.7713 77.3375 43.4895 76.4409 45.0225C75.5444 46.5556 74.3084 47.8629 72.828 48.844Z"   ></path>
  </symbol>
  <symbol  xmlns="http://www.w3.org/2000/svg" viewBox="0 0 24 25" id="facebook">
    <path d="M20.9 2.28809H3.1C2.80826 2.28809 2.52847 2.40398 2.32218 2.61027C2.11589 2.81656 2 3.09635 2 3.38809V21.1881C2 21.3325 2.02845 21.4756 2.08373 21.609C2.13901 21.7425 2.22004 21.8638 2.32218 21.9659C2.42433 22.068 2.54559 22.1491 2.67905 22.2044C2.81251 22.2596 2.95555 22.2881 3.1 22.2881H12.68V14.5381H10.08V11.5381H12.68V9.28809C12.6261 8.75984 12.6885 8.22621 12.8627 7.72462C13.0369 7.22303 13.3188 6.76563 13.6885 6.3845C14.0582 6.00336 14.5068 5.70773 15.0028 5.51832C15.4989 5.32892 16.0304 5.25034 16.56 5.28809C17.3383 5.2833 18.1163 5.32336 18.89 5.40809V8.10809H17.3C16.04 8.10809 15.8 8.70809 15.8 9.57809V11.5081H18.8L18.41 14.5081H15.8V22.2881H20.9C21.0445 22.2881 21.1875 22.2596 21.321 22.2044C21.4544 22.1491 21.5757 22.068 21.6778 21.9659C21.78 21.8638 21.861 21.7425 21.9163 21.609C21.9715 21.4756 22 21.3325 22 21.1881V3.38809C22 3.24363 21.9715 3.10059 21.9163 2.96713C21.861 2.83368 21.78 2.71241 21.6778 2.61027C21.5757 2.50812 21.4544 2.4271 21.321 2.37182C21.1875 2.31654 21.0445 2.28809 20.9 2.28809Z"  ></path>
  </symbol>
  <symbol  xmlns="http://www.w3.org/2000/svg" viewBox="0 0 28 31" id="instagram">
    <g filter="url(#filter0_d)">
      <path d="M19.34 5.74809C19.1027 5.74809 18.8707 5.81846 18.6733 5.95032C18.476 6.08218 18.3222 6.26959 18.2313 6.48887C18.1405 6.70814 18.1168 6.94942 18.1631 7.18219C18.2094 7.41497 18.3236 7.62879 18.4915 7.79661C18.6593 7.96444 18.8731 8.07873 19.1059 8.12503C19.3387 8.17133 19.5799 8.14757 19.7992 8.05674C20.0185 7.96592 20.2059 7.81211 20.3378 7.61477C20.4696 7.41743 20.54 7.18542 20.54 6.94809C20.54 6.62983 20.4136 6.3246 20.1885 6.09956C19.9635 5.87451 19.6583 5.74809 19.34 5.74809ZM23.94 8.16809C23.9206 7.33838 23.7652 6.51749 23.48 5.73809C23.2257 5.07122 22.83 4.46736 22.32 3.96809C21.8248 3.45551 21.2196 3.06226 20.55 2.81809C19.7727 2.52425 18.9508 2.3653 18.12 2.34809C17.06 2.28809 16.72 2.28809 14 2.28809C11.28 2.28809 10.94 2.28809 9.88 2.34809C9.04915 2.3653 8.22734 2.52425 7.45 2.81809C6.78168 3.06473 6.17693 3.45765 5.68 3.96809C5.16743 4.46326 4.77418 5.06853 4.53 5.73809C4.23616 6.51543 4.07721 7.33724 4.06 8.16809C4 9.22809 4 9.56809 4 12.2881C4 15.0081 4 15.3481 4.06 16.4081C4.07721 17.2389 4.23616 18.0607 4.53 18.8381C4.77418 19.5076 5.16743 20.1129 5.68 20.6081C6.17693 21.1185 6.78168 21.5114 7.45 21.7581C8.22734 22.0519 9.04915 22.2109 9.88 22.2281C10.94 22.2881 11.28 22.2881 14 22.2881C16.72 22.2881 17.06 22.2881 18.12 22.2281C18.9508 22.2109 19.7727 22.0519 20.55 21.7581C21.2196 21.5139 21.8248 21.1207 22.32 20.6081C22.8322 20.1107 23.2283 19.5063 23.48 18.8381C23.7652 18.0587 23.9206 17.2378 23.94 16.4081C23.94 15.3481 24 15.0081 24 12.2881C24 9.56809 24 9.22809 23.94 8.16809ZM22.14 16.2881C22.1327 16.9229 22.0178 17.5518 21.8 18.1481C21.6403 18.5833 21.3839 18.9765 21.05 19.2981C20.7256 19.6286 20.3332 19.8845 19.9 20.0481C19.3037 20.2658 18.6748 20.3808 18.04 20.3881C17.04 20.4381 16.67 20.4481 14.04 20.4481C11.41 20.4481 11.04 20.4481 10.04 20.3881C9.38089 20.4004 8.72459 20.2989 8.1 20.0881C7.68578 19.9162 7.31136 19.6609 7 19.3381C6.66809 19.0168 6.41484 18.6233 6.26 18.1881C6.01586 17.5832 5.88044 16.94 5.86 16.2881C5.86 15.2881 5.8 14.9181 5.8 12.2881C5.8 9.65809 5.8 9.28809 5.86 8.28809C5.86448 7.63914 5.98295 6.99603 6.21 6.38809C6.38605 5.966 6.65627 5.58974 7 5.28809C7.30381 4.94425 7.67929 4.67118 8.1 4.48809C8.70955 4.26813 9.352 4.15317 10 4.14809C11 4.14809 11.37 4.08809 14 4.08809C16.63 4.08809 17 4.08809 18 4.14809C18.6348 4.15537 19.2637 4.27033 19.86 4.48809C20.3144 4.65674 20.7223 4.93093 21.05 5.28809C21.3777 5.59526 21.6338 5.97082 21.8 6.38809C22.0223 6.99702 22.1373 7.63987 22.14 8.28809C22.19 9.28809 22.2 9.65809 22.2 12.2881C22.2 14.9181 22.19 15.2881 22.14 16.2881ZM14 7.15809C12.9858 7.16006 11.995 7.46261 11.1527 8.0275C10.3103 8.5924 9.65438 9.39428 9.26763 10.3318C8.88089 11.2694 8.78072 12.3006 8.97979 13.295C9.17886 14.2895 9.66824 15.2026 10.3861 15.9191C11.1039 16.6355 12.018 17.1231 13.0129 17.3202C14.0077 17.5174 15.0387 17.4152 15.9755 17.0266C16.9123 16.6381 17.7129 15.9805 18.2761 15.1371C18.8394 14.2937 19.14 13.3023 19.14 12.2881C19.1413 11.6132 19.0092 10.9447 18.7512 10.321C18.4933 9.69739 18.1146 9.1309 17.6369 8.65414C17.1592 8.17738 16.5919 7.79976 15.9678 7.54302C15.3436 7.28627 14.6749 7.15545 14 7.15809ZM14 15.6181C13.3414 15.6181 12.6976 15.4228 12.15 15.0569C11.6023 14.691 11.1755 14.1709 10.9235 13.5624C10.6714 12.9539 10.6055 12.2844 10.734 11.6384C10.8625 10.9925 11.1796 10.3991 11.6453 9.93342C12.111 9.46771 12.7044 9.15056 13.3503 9.02207C13.9963 8.89358 14.6659 8.95953 15.2743 9.21157C15.8828 9.46361 16.4029 9.89042 16.7688 10.438C17.1347 10.9857 17.33 11.6295 17.33 12.2881C17.33 12.7254 17.2439 13.1584 17.0765 13.5624C16.9092 13.9664 16.6639 14.3335 16.3547 14.6428C16.0454 14.952 15.6784 15.1973 15.2743 15.3646C14.8703 15.532 14.4373 15.6181 14 15.6181Z"  ></path>
    </g>
    <defs>
      <filter id="filter0_d" x="-2" y="0.288086" width="32" height="32" filterUnits="userSpaceOnUse" color-interpolation-filters="sRGB">
        <feFlood flood-opacity="0" result="BackgroundImageFix"></feFlood>
        <feColorMatrix in="SourceAlpha" type="matrix" values="0 0 0 0 0 0 0 0 0 0 0 0 0 0 0 0 0 0 127 0" result="hardAlpha"></feColorMatrix>
        <feOffset dy="4"></feOffset>
        <feGaussianBlur stdDeviation="2"></feGaussianBlur>
        <feComposite in2="hardAlpha" operator="out"></feComposite>
        <feColorMatrix type="matrix" values="0 0 0 0 0 0 0 0 0 0 0 0 0 0 0 0 0 0 0.25 0"></feColorMatrix>
        <feBlend mode="normal" in2="BackgroundImageFix" result="effect1_dropShadow"></feBlend>
        <feBlend mode="normal" in="SourceGraphic" in2="effect1_dropShadow" result="shape"></feBlend>
      </filter>
    </defs>
  </symbol>
  <symbol  xmlns="http://www.w3.org/2000/svg" viewBox="0 0 39 24" id="logo">
    <circle cx="12" cy="12" r="12"   ></circle>
    <circle cx="27" cy="12" r="10"    stroke="white" stroke-width="4"></circle>
  </symbol>
  <symbol  xmlns="http://www.w3.org/2000/svg" viewBox="0 0 48 48" id="prev-arrow">
    <path d="M37.5 24.1999C37.5 23.7892 37.3419 23.3954 37.0606 23.105C36.7793 22.8146 36.3978 22.6515 36 22.6515L15.615 22.6515L17.565 20.6541C17.8474 20.3625 18.0061 19.9671 18.0061 19.5547C18.0061 19.1424 17.8474 18.7469 17.565 18.4554C17.2825 18.1638 16.8994 18 16.5 18C16.1005 18 15.7174 18.1638 15.435 18.4554L10.935 23.1005C10.7268 23.3183 10.5858 23.5948 10.5298 23.8951C10.4737 24.1955 10.5051 24.5063 10.62 24.7883C10.7325 25.071 10.9236 25.3131 11.1692 25.4839C11.4148 25.6548 11.7038 25.7467 12 25.7483L36 25.7483C36.3978 25.7483 36.7793 25.5851 37.0606 25.2948C37.3419 25.0044 37.5 24.6105 37.5 24.1999Z"  ></path>
    <path d="M18 28.845C18.0012 28.6412 17.9633 28.4392 17.8887 28.2506C17.814 28.0619 17.7041 27.8903 17.565 27.7457L13.065 23.1005C12.7826 22.8089 12.3995 22.6451 12 22.6451C11.8022 22.6451 11.6064 22.6854 11.4237 22.7635C11.2409 22.8416 11.0749 22.9561 10.935 23.1005C10.7952 23.2449 10.6842 23.4163 10.6085 23.6049C10.5329 23.7935 10.4939 23.9957 10.4939 24.1999C10.4939 24.6122 10.6526 25.0076 10.935 25.2992L15.435 29.9444C15.5745 30.0895 15.7404 30.2047 15.9232 30.2833C16.106 30.3619 16.302 30.4024 16.5 30.4024C16.6981 30.4024 16.8941 30.3619 17.0769 30.2833C17.2597 30.2047 17.4256 30.0895 17.565 29.9444C17.7041 29.7997 17.814 29.6281 17.8887 29.4395C17.9633 29.2508 18.0012 29.0488 18 28.845Z"  ></path>
  </symbol>
  <symbol  xmlns="http://www.w3.org/2000/svg" viewBox="0 0 24 24" id="search">
    <path d="M20.71 19.29L17.31 15.9C18.407 14.5025 19.0022 12.7767 19 11C19 9.41775 18.5308 7.87103 17.6518 6.55544C16.7727 5.23985 15.5233 4.21447 14.0615 3.60897C12.5997 3.00347 10.9911 2.84504 9.43928 3.15372C7.88743 3.4624 6.46197 4.22433 5.34315 5.34315C4.22433 6.46197 3.4624 7.88743 3.15372 9.43928C2.84504 10.9911 3.00347 12.5997 3.60897 14.0615C4.21447 15.5233 5.23985 16.7727 6.55544 17.6518C7.87103 18.5308 9.41775 19 11 19C12.7767 19.0022 14.5025 18.407 15.9 17.31L19.29 20.71C19.383 20.8037 19.4936 20.8781 19.6154 20.9289C19.7373 20.9797 19.868 21.0058 20 21.0058C20.132 21.0058 20.2627 20.9797 20.3846 20.9289C20.5064 20.8781 20.617 20.8037 20.71 20.71C20.8037 20.617 20.8781 20.5064 20.9289 20.3846C20.9797 20.2627 21.0058 20.132 21.0058 20C21.0058 19.868 20.9797 19.7373 20.9289 19.6154C20.8781 19.4936 20.8037 19.383 20.71 19.29ZM5 11C5 9.81332 5.3519 8.65328 6.01119 7.66658C6.67047 6.67989 7.60755 5.91085 8.7039 5.45673C9.80026 5.0026 11.0067 4.88378 12.1705 5.11529C13.3344 5.3468 14.4035 5.91825 15.2426 6.75736C16.0818 7.59648 16.6532 8.66558 16.8847 9.82946C17.1162 10.9933 16.9974 12.1997 16.5433 13.2961C16.0892 14.3925 15.3201 15.3295 14.3334 15.9888C13.3467 16.6481 12.1867 17 11 17C9.4087 17 7.88258 16.3679 6.75736 15.2426C5.63214 14.1174 5 12.5913 5 11Z"   ></path>
  </symbol>
  <symbol  xmlns="http://www.w3.org/2000/svg" viewBox="0 0 24 22" id="star">
    <path d="M12 0L14.6942 8.2918H23.4127L16.3593 13.4164L19.0534 21.7082L12 16.5836L4.94658 21.7082L7.64074 13.4164L0.587322 8.2918H9.30583L12 0Z"  ></path>
  </symbol>
  <symbol  xmlns="http://www.w3.org/2000/svg" viewBox="0 0 32 32" id="small-arrow">
    <path d="M6.99998 15.2883C6.99998 15.0231 7.10534 14.7687 7.29288 14.5812C7.48041 14.3936 7.73477 14.2883 7.99998 14.2883L21.59 14.2883L20.29 12.9983C20.1017 12.81 19.9959 12.5546 19.9959 12.2883C19.9959 12.022 20.1017 11.7666 20.29 11.5783C20.4783 11.39 20.7337 11.2842 21 11.2842C21.2663 11.2842 21.5217 11.39 21.71 11.5783L24.71 14.5783C24.8487 14.7189 24.9427 14.8975 24.9801 15.0915C25.0175 15.2854 24.9966 15.4862 24.92 15.6683C24.845 15.8509 24.7176 16.0072 24.5538 16.1175C24.3901 16.2279 24.1974 16.2873 24 16.2883L7.99998 16.2883C7.73477 16.2883 7.48041 16.1829 7.29288 15.9954C7.10534 15.8078 6.99998 15.5535 6.99998 15.2883Z"   ></path>
    <path d="M20 18.2883C19.9992 18.1567 20.0245 18.0262 20.0742 17.9044C20.124 17.7825 20.1973 17.6717 20.29 17.5783L23.29 14.5783C23.4783 14.39 23.7337 14.2842 24 14.2842C24.1319 14.2842 24.2624 14.3102 24.3842 14.3606C24.5061 14.4111 24.6168 14.485 24.71 14.5783C24.8032 14.6715 24.8772 14.7822 24.9277 14.904C24.9781 15.0258 25.0041 15.1564 25.0041 15.2883C25.0041 15.5546 24.8983 15.81 24.71 15.9983L21.71 18.9983C21.617 19.092 21.5064 19.1664 21.3846 19.2172C21.2627 19.2679 21.132 19.2941 21 19.2941C20.868 19.2941 20.7373 19.2679 20.6154 19.2172C20.4936 19.1664 20.383 19.092 20.29 18.9983C20.1973 18.9048 20.124 18.794 20.0742 18.6722C20.0245 18.5503 19.9992 18.4199 20 18.2883Z"   ></path>
  </symbol>
  <symbol  xmlns="http://www.w3.org/2000/svg" viewBox="0 0 24 25" id="twitter">
    <path d="M8.50997 20.2881H8.42997C6.81833 20.274 5.22999 19.9017 3.77997 19.1981C3.51324 19.0728 3.29363 18.8654 3.15327 18.6063C3.01292 18.3472 2.9592 18.05 2.99997 17.7581C3.04431 17.4643 3.18036 17.192 3.38868 16.9801C3.59699 16.7681 3.86694 16.6275 4.15997 16.5781C5.05858 16.4582 5.92306 16.1553 6.69997 15.6881C5.35113 14.6335 4.31272 13.2337 3.69479 11.6369C3.07686 10.0401 2.90242 8.30595 3.18997 6.61811C3.22896 6.35076 3.34393 6.10024 3.52122 5.89637C3.6985 5.69249 3.93063 5.54384 4.18997 5.46811C4.44228 5.38887 4.71232 5.38548 4.96654 5.45837C5.22076 5.53126 5.44797 5.67721 5.61997 5.87811C6.20397 6.64389 6.93786 7.28267 7.77687 7.75547C8.61589 8.22827 9.54242 8.52519 10.5 8.62811C10.5457 7.44996 11.052 6.33682 11.91 5.52811C12.3384 5.11788 12.8441 4.79702 13.3978 4.58421C13.9514 4.37141 14.5419 4.27092 15.1348 4.28861C15.7276 4.30629 16.3111 4.44179 16.8511 4.68722C17.391 4.93264 17.8768 5.28308 18.28 5.71811C18.385 5.81098 18.5155 5.87016 18.6546 5.88799C18.7937 5.90582 18.9349 5.88147 19.06 5.81811C19.2984 5.70565 19.5639 5.66332 19.8255 5.69605C20.0871 5.72878 20.3339 5.83522 20.5373 6.00295C20.7407 6.17068 20.8922 6.39279 20.9741 6.64336C21.056 6.89393 21.065 7.16263 21 7.41811C20.7693 8.36822 20.3323 9.2559 19.72 10.0181C19.585 12.8629 18.3308 15.5389 16.2309 17.4627C14.131 19.3866 11.3556 20.4022 8.50997 20.2881ZM8.50997 18.2881H8.58997C9.75264 18.3281 10.9117 18.1369 11.9999 17.7256C13.0881 17.3143 14.0839 16.691 14.9294 15.892C15.7749 15.093 16.4535 14.134 16.9256 13.0708C17.3978 12.0076 17.6542 10.8612 17.68 9.69811C17.6965 9.37936 17.8279 9.07739 18.05 8.84811C18.2939 8.53935 18.5019 8.20386 18.67 7.84811C18.3097 7.84879 17.9534 7.77344 17.6242 7.62696C17.2951 7.48049 17.0006 7.2662 16.76 6.99811C16.5286 6.76866 16.2537 6.58768 15.9515 6.46577C15.6493 6.34386 15.3258 6.28346 15 6.28811C14.6709 6.2796 14.3433 6.33617 14.0362 6.45458C13.729 6.57299 13.4482 6.7509 13.21 6.97811C12.8886 7.28311 12.6529 7.66717 12.5265 8.09187C12.4002 8.51657 12.3876 8.96701 12.49 9.39811L12.75 10.5381L11.58 10.6181C10.3811 10.7159 9.17523 10.5519 8.04598 10.1375C6.91673 9.72306 5.89105 9.06816 5.03997 8.21811C5.00347 9.5345 5.33277 10.8352 5.99126 11.9757C6.64976 13.1161 7.61164 14.0516 8.76997 14.6781L9.71997 15.2181L9.08997 16.1181C8.40866 17.0116 7.47515 17.6804 6.40997 18.0381C7.09328 18.2094 7.79554 18.2934 8.49997 18.2881H8.50997Z"  ></path>
  </symbol>
  <symbol  xmlns="http://www.w3.org/2000/svg" viewBox="0 0 65 65" id="why1">
    <path d="M36.9434 16.6182C36.9434 17.5704 36.9434 18.5225 36.9434 19.4747C36.9434 21.7598 36.9434 24.045 36.9434 26.3365C36.9434 29.0914 36.9434 31.8462 36.9434 34.6011C36.9434 36.9878 36.9434 39.3809 36.9434 41.7676C36.9434 42.9229 36.918 44.0845 36.9434 45.2398C36.9434 45.2588 36.9434 45.2715 36.9434 45.2906C37.7876 44.4463 38.6382 43.5958 39.4824 42.7515C37.3496 42.7515 35.2168 42.7515 33.084 42.7515C29.6753 42.7515 26.2603 42.7515 22.8516 42.7515C22.0708 42.7515 21.2901 42.7515 20.5156 42.7515C21.3599 43.5958 22.2105 44.4463 23.0547 45.2906C23.042 43.7989 22.6167 42.2247 21.7407 41.0059C21.1694 40.2125 20.5982 39.6348 19.8237 39.0508C19.2207 38.5938 18.5415 38.2828 17.8306 38.0225C15.0186 36.9815 11.521 37.94 9.59766 40.2315C8.39161 41.6724 7.69971 43.399 7.68067 45.2969C8.52491 44.4527 9.37549 43.6021 10.2197 42.7579C9.43897 42.7579 8.66456 42.7579 7.88379 42.7579C7.09034 42.7579 6.26514 42.8277 5.47168 42.7388C5.69385 42.7706 5.92237 42.8023 6.14454 42.8277C5.97315 42.8023 5.80811 42.7579 5.64942 42.7007C5.85254 42.7833 6.05567 42.8721 6.25879 42.9546C6.07471 42.8785 5.90967 42.7833 5.75098 42.6626C5.92237 42.7959 6.09375 42.9293 6.26514 43.0626C6.13184 42.9546 6.01758 42.8404 5.91602 42.7134C6.04932 42.8848 6.18262 43.0562 6.31592 43.2276C6.19532 43.0689 6.1001 42.9039 6.02393 42.7198C6.10645 42.9229 6.19532 43.126 6.27784 43.3292C6.21436 43.1641 6.17627 43.0054 6.15088 42.834C6.18262 43.0562 6.21436 43.2847 6.23975 43.5069C6.20801 43.2022 6.22071 42.8912 6.22071 42.5865C6.22071 41.9517 6.22071 41.3106 6.22071 40.6758C6.22071 38.543 6.22071 36.4039 6.22071 34.2711C6.22071 31.6876 6.22071 29.1041 6.22071 26.5206C6.22071 24.2925 6.22071 22.0645 6.22071 19.8365C6.22071 18.7764 6.20801 17.7164 6.22071 16.6627C6.22071 16.5611 6.22705 16.4659 6.23975 16.3643C6.20801 16.5865 6.17627 16.815 6.15088 17.0372C6.17627 16.8658 6.22071 16.7007 6.27784 16.542C6.19532 16.7452 6.10645 16.9483 6.02393 17.1514C6.1001 16.9673 6.19532 16.8023 6.31592 16.6436C6.18262 16.815 6.04932 16.9864 5.91602 17.1578C6.02393 17.0245 6.13819 16.9102 6.26514 16.8086C6.09375 16.9419 5.92237 17.0753 5.75098 17.2086C5.90967 17.0879 6.07471 16.9927 6.25879 16.9166C6.05567 16.9991 5.85254 17.0879 5.64942 17.1705C5.81446 17.107 5.97315 17.0689 6.14454 17.0435C5.92237 17.0753 5.69385 17.107 5.47168 17.1324C5.8208 17.0943 6.18262 17.1133 6.53809 17.1133C7.29981 17.1133 8.06153 17.1133 8.82325 17.1133C11.3623 17.1133 13.895 17.1133 16.4341 17.1133C19.5 17.1133 22.5659 17.1133 25.6382 17.1133C28.2915 17.1133 30.9448 17.1133 33.5982 17.1133C34.8614 17.1133 36.1245 17.0943 37.3877 17.1133C37.4893 17.1133 37.5908 17.1197 37.6924 17.1324C37.4702 17.1006 37.2417 17.0689 37.0196 17.0435C37.1909 17.0689 37.356 17.1133 37.5147 17.1705C37.3116 17.0879 37.1084 16.9991 36.9053 16.9166C37.0894 16.9927 37.2544 17.0879 37.4131 17.2086C37.2417 17.0753 37.0703 16.9419 36.899 16.8086C37.0323 16.9166 37.1465 17.0308 37.2481 17.1578C37.1148 16.9864 36.9815 16.815 36.8482 16.6436C36.9688 16.8023 37.064 16.9673 37.1402 17.1514C37.0576 16.9483 36.9688 16.7452 36.8863 16.542C36.9497 16.7071 36.9878 16.8658 37.0132 17.0372C36.9815 16.815 36.9497 16.5865 36.9243 16.3643C36.937 16.4405 36.9434 16.5294 36.9434 16.6182C36.9561 17.2784 37.2163 17.9449 37.6861 18.4146C38.1241 18.8526 38.8477 19.189 39.4824 19.1573C40.8345 19.0938 42.0533 18.0401 42.0215 16.6182C41.9961 15.4312 41.5645 14.3775 40.7901 13.4888C40.1997 12.816 39.2539 12.2701 38.3653 12.1304C37.9844 12.0669 37.6099 12.0225 37.2227 12.0225C36.6324 12.0225 36.0357 12.0225 35.4453 12.0225C32.938 12.0225 30.4307 12.0225 27.9234 12.0225C24.6416 12.0225 21.3662 12.0225 18.0845 12.0225C15.2217 12.0225 12.3589 12.0225 9.50245 12.0225C8.25196 12.0225 6.99512 11.9971 5.74463 12.0225C3.70069 12.0606 1.92334 13.3809 1.32666 15.3423C1.18066 15.8121 1.14893 16.3135 1.14893 16.8086C1.14893 17.4625 1.14893 18.1163 1.14893 18.7701C1.14893 21.5059 1.14893 24.2354 1.14893 26.9712C1.14893 30.2022 1.14893 33.4395 1.14893 36.6705C1.14893 38.7271 1.14893 40.7774 1.14893 42.834C1.14893 42.9673 1.14893 43.1006 1.14893 43.2276C1.16162 44.0274 1.3584 44.7193 1.70752 45.4366C2.10107 46.2364 2.88818 46.9854 3.70069 47.3409C4.39893 47.6519 5.05274 47.8296 5.82715 47.836C6.05567 47.836 6.29053 47.836 6.51905 47.836C7.31885 47.836 8.11231 47.836 8.91211 47.836C9.3501 47.836 9.78809 47.836 10.2261 47.836C11.6099 47.836 12.7524 46.6744 12.7651 45.2969C12.7651 45.0621 12.7842 44.8272 12.8159 44.5923C12.7842 44.8145 12.7524 45.043 12.7271 45.2652C12.7905 44.8082 12.9175 44.3702 13.0889 43.9512C13.0064 44.1544 12.9175 44.3575 12.835 44.5606C13.0127 44.148 13.2412 43.7671 13.5142 43.4117C13.3809 43.5831 13.2476 43.7544 13.1143 43.9258C13.3745 43.5958 13.6665 43.3038 13.9966 43.0435C13.8252 43.1768 13.6538 43.3101 13.4824 43.4434C13.8379 43.1705 14.2188 42.9419 14.6314 42.7642C14.4282 42.8467 14.2251 42.9356 14.022 43.0181C14.4473 42.8404 14.8853 42.7198 15.3359 42.6563C15.1138 42.688 14.8853 42.7198 14.6631 42.7452C15.1328 42.6817 15.6025 42.6817 16.0723 42.7452C15.8501 42.7134 15.6216 42.6817 15.3994 42.6563C15.8565 42.7198 16.2944 42.8467 16.7134 43.0181C16.5103 42.9356 16.3071 42.8467 16.104 42.7642C16.5166 42.9419 16.8975 43.1705 17.2529 43.4434C17.0816 43.3101 16.9102 43.1768 16.7388 43.0435C17.0689 43.3038 17.3609 43.5958 17.6211 43.9258C17.4878 43.7544 17.3545 43.5831 17.2212 43.4117C17.4942 43.7671 17.7227 44.148 17.9004 44.5606C17.8179 44.3575 17.729 44.1544 17.6465 43.9512C17.8242 44.3765 17.9448 44.8145 18.0083 45.2652C17.9766 45.043 17.9448 44.8145 17.9194 44.5923C17.9512 44.8272 17.9639 45.0621 17.9702 45.2969C17.9829 46.668 19.1255 47.836 20.5093 47.836C22.6421 47.836 24.7749 47.836 26.9077 47.836C30.3164 47.836 33.7315 47.836 37.1402 47.836C37.9209 47.836 38.7017 47.836 39.4761 47.836C40.8472 47.836 42.0152 46.6744 42.0152 45.2969C42.0152 44.3448 42.0152 43.3926 42.0152 42.4405C42.0152 40.1553 42.0152 37.8702 42.0152 35.5787C42.0152 32.8238 42.0152 30.0689 42.0152 27.314C42.0152 24.9273 42.0152 22.5342 42.0152 20.1475C42.0152 18.9922 42.0342 17.8306 42.0152 16.6753C42.0152 16.6563 42.0152 16.6436 42.0152 16.6246C42.0152 15.2979 40.8472 14.022 39.4761 14.0855C38.105 14.1426 36.9434 15.1963 36.9434 16.6182Z"   ></path>
    <path d="M58.7729 34.9059C58.7729 37.3752 58.7729 39.8381 58.7729 42.3073C58.7729 42.7008 58.7983 43.1071 58.7539 43.507C58.7856 43.2848 58.8174 43.0563 58.8428 42.8341C58.8174 43.0055 58.7729 43.1706 58.7158 43.3293C58.7983 43.1261 58.8872 42.923 58.9697 42.7199C58.8935 42.904 58.7983 43.069 58.6777 43.2277C58.811 43.0563 58.9443 42.8849 59.0776 42.7135C58.9697 42.8468 58.8555 42.9611 58.7285 43.0627C58.8999 42.9294 59.0713 42.7961 59.2427 42.6628C59.084 42.7834 58.9189 42.8786 58.7349 42.9548C58.938 42.8722 59.1411 42.7834 59.3442 42.7008C59.1792 42.7643 59.0205 42.8024 58.8491 42.8278C59.0713 42.7961 59.2998 42.7643 59.522 42.7389C58.8682 42.8088 58.189 42.758 57.5288 42.758C56.8877 42.758 56.2529 42.758 55.6118 42.758C56.456 43.6022 57.3066 44.4528 58.1509 45.297C58.1382 43.8053 57.7129 42.2311 56.8369 41.0124C56.2656 40.2189 55.6943 39.6413 54.9199 39.0573C54.3169 38.6003 53.6377 38.2892 52.9267 38.029C50.1084 36.988 46.6172 37.9465 44.6938 40.238C43.4878 41.6789 42.7959 43.4054 42.7768 45.3034C43.6211 44.4591 44.4717 43.6086 45.3159 42.7643C43.6147 42.7643 41.9199 42.7643 40.2187 42.7643C39.9712 42.7643 39.7236 42.7643 39.4761 42.7643C40.3203 43.6086 41.1709 44.4591 42.0151 45.3034C42.0151 44.5544 42.0151 43.8117 42.0151 43.0627C42.0151 41.2726 42.0151 39.4762 42.0151 37.6862C42.0151 35.5153 42.0151 33.3507 42.0151 31.1799C42.0151 29.3073 42.0151 27.4284 42.0151 25.5558C42.0151 24.6418 42.0342 23.7277 42.0151 22.8136C42.0151 22.8009 42.0151 22.7882 42.0151 22.7756C41.1709 23.6198 40.3203 24.4704 39.4761 25.3146C40.771 25.3146 42.0659 25.3146 43.3608 25.3146C45.3857 25.3146 47.4106 25.3146 49.4355 25.3146C49.9751 25.3146 50.54 25.2765 51.0732 25.34C50.8511 25.3083 50.6225 25.2765 50.4004 25.2511C50.6289 25.2892 50.8384 25.3464 51.0542 25.4289C50.8511 25.3464 50.6479 25.2575 50.4448 25.175C50.686 25.2765 50.9082 25.4035 51.1113 25.5622C50.9399 25.4289 50.7685 25.2956 50.5972 25.1623C51.0161 25.4987 51.3462 25.9621 51.689 26.3683C52.3047 27.1047 52.9204 27.841 53.5425 28.5773C54.9834 30.2975 56.4243 32.0241 57.8716 33.7443C58.2207 34.1632 58.5762 34.5758 58.9189 34.9948C58.7856 34.8234 58.6523 34.652 58.519 34.4806C58.665 34.6774 58.7793 34.8742 58.8808 35.0964C58.7983 34.8932 58.7095 34.6901 58.6269 34.487C58.7158 34.7091 58.7793 34.9313 58.8174 35.1725C58.7856 34.9504 58.7539 34.7218 58.7285 34.4997C58.7602 34.633 58.7729 34.7663 58.7729 34.9059C58.7856 35.5661 59.0459 36.2326 59.5156 36.7023C59.9536 37.1403 60.6772 37.4767 61.312 37.445C62.6641 37.3815 63.8765 36.3278 63.8511 34.9059C63.832 33.9919 63.6099 33.154 63.1909 32.3415C62.9941 31.9606 62.7085 31.6242 62.4355 31.2941C62.3213 31.1608 62.2134 31.0275 62.0991 30.8942C61.5469 30.234 60.9883 29.5675 60.436 28.9074C58.938 27.1173 57.4336 25.321 55.9355 23.5309C55.5229 23.0358 55.1103 22.5407 54.6977 22.0519C53.6885 20.8522 52.146 20.2301 50.5972 20.2301C48.7627 20.2238 46.9219 20.2301 45.0874 20.2301C43.2529 20.2301 41.4121 20.2111 39.5776 20.2301C39.5459 20.2301 39.5142 20.2301 39.4824 20.2301C38.1113 20.2301 36.9434 21.3918 36.9434 22.7692C36.9434 23.5182 36.9434 24.2609 36.9434 25.0099C36.9434 26.8 36.9434 28.5964 36.9434 30.3864C36.9434 32.5573 36.9434 34.7218 36.9434 36.8927C36.9434 38.7653 36.9434 40.6442 36.9434 42.5168C36.9434 43.4308 36.9307 44.3449 36.9434 45.259C36.9434 45.2716 36.9434 45.2843 36.9434 45.297C36.9434 46.6681 38.105 47.8361 39.4824 47.8361C41.1836 47.8361 42.8784 47.8361 44.5796 47.8361C44.8271 47.8361 45.0747 47.8361 45.3223 47.8361C46.706 47.8361 47.8486 46.6745 47.8613 45.297C47.8613 45.0622 47.8804 44.8273 47.9121 44.5924C47.8804 44.8146 47.8486 45.0431 47.8232 45.2653C47.8867 44.8083 48.0137 44.3703 48.185 43.9513C48.1025 44.1545 48.0137 44.3576 47.9311 44.5607C48.1089 44.1481 48.3374 43.7673 48.6103 43.4118C48.477 43.5832 48.3437 43.7546 48.2104 43.9259C48.4707 43.5959 48.7627 43.3039 49.0928 43.0436C48.9214 43.1769 48.75 43.3102 48.5786 43.4435C48.9341 43.1706 49.3149 42.9421 49.7275 42.7643C49.5244 42.8468 49.3213 42.9357 49.1182 43.0182C49.5434 42.8405 49.9814 42.7199 50.4321 42.6564C50.2099 42.6882 49.9814 42.7199 49.7593 42.7453C50.229 42.6818 50.6987 42.6818 51.1684 42.7453C50.9463 42.7135 50.7178 42.6818 50.4956 42.6564C50.9526 42.7199 51.3906 42.8468 51.8096 43.0182C51.6064 42.9357 51.4033 42.8468 51.2002 42.7643C51.6128 42.9421 51.9936 43.1706 52.3491 43.4435C52.1777 43.3102 52.0063 43.1769 51.8349 43.0436C52.165 43.3039 52.457 43.5959 52.7173 43.9259C52.584 43.7546 52.4507 43.5832 52.3174 43.4118C52.5903 43.7673 52.8188 44.1481 52.9966 44.5607C52.9141 44.3576 52.8252 44.1545 52.7427 43.9513C52.9204 44.3766 53.041 44.8146 53.1045 45.2653C53.0727 45.0431 53.041 44.8146 53.0156 44.5924C53.0474 44.8273 53.06 45.0622 53.0664 45.297C53.0791 46.6681 54.2217 47.8361 55.6055 47.8361C56.6084 47.8361 57.6177 47.8361 58.6206 47.8361C59.2871 47.8361 59.9663 47.8488 60.6074 47.6266C61.3818 47.3664 62.1372 46.9347 62.6641 46.3C62.9307 45.9762 63.1846 45.6589 63.3496 45.278C63.6289 44.6496 63.7558 44.1862 63.8257 43.5006C63.8955 42.7897 63.8447 42.047 63.8447 41.3361C63.8447 40.0348 63.8447 38.7336 63.8447 37.4323C63.8447 36.5881 63.8447 35.7502 63.8447 34.9059C63.8447 33.5793 62.6767 32.3034 61.3056 32.3669C59.9409 32.4303 58.7729 33.484 58.7729 34.9059ZM17.9702 45.2907C17.9702 45.5256 17.9512 45.7604 17.9194 45.9953C17.9512 45.7731 17.9829 45.5446 18.0083 45.3224C17.9448 45.7795 17.8179 46.2174 17.6465 46.6364C17.729 46.4333 17.8179 46.2301 17.9004 46.027C17.7227 46.4396 17.4941 46.8205 17.2212 47.1759C17.3545 47.0046 17.4878 46.8332 17.6211 46.6618C17.3608 46.9919 17.0688 47.2839 16.7388 47.5441C16.9102 47.4108 17.0815 47.2775 17.2529 47.1442C16.8975 47.4172 16.5166 47.6457 16.104 47.8234C16.3071 47.7409 16.5103 47.652 16.7134 47.5695C16.2881 47.7472 15.8501 47.8678 15.3994 47.9313C15.6216 47.8996 15.8501 47.8678 16.0723 47.8424C15.6025 47.9059 15.1328 47.9059 14.6631 47.8424C14.8853 47.8742 15.1138 47.9059 15.3359 47.9313C14.8789 47.8678 14.4409 47.7409 14.022 47.5695C14.2251 47.652 14.4282 47.7409 14.6313 47.8234C14.2187 47.6457 13.8379 47.4172 13.4824 47.1442C13.6538 47.2775 13.8252 47.4108 13.9966 47.5441C13.6665 47.2839 13.3745 46.9919 13.1143 46.6618C13.2476 46.8332 13.3809 47.0046 13.5142 47.1759C13.2412 46.8205 13.0127 46.4396 12.835 46.027C12.9175 46.2301 13.0063 46.4333 13.0889 46.6364C12.9111 46.2111 12.7905 45.7731 12.7271 45.3224C12.7588 45.5446 12.7905 45.7731 12.8159 45.9953C12.7524 45.5256 12.7524 45.0558 12.8159 44.5861C12.7842 44.8083 12.7524 45.0368 12.7271 45.259C12.7905 44.8019 12.9175 44.3639 13.0889 43.945C13.0063 44.1481 12.9175 44.3512 12.835 44.5544C13.0127 44.1418 13.2412 43.7609 13.5142 43.4054C13.3809 43.5768 13.2476 43.7482 13.1143 43.9196C13.3745 43.5895 13.6665 43.2975 13.9966 43.0373C13.8252 43.1706 13.6538 43.3039 13.4824 43.4372C13.8379 43.1642 14.2187 42.9357 14.6313 42.758C14.4282 42.8405 14.2251 42.9294 14.022 43.0119C14.4473 42.8341 14.8853 42.7135 15.3359 42.6501C15.1138 42.6818 14.8853 42.7135 14.6631 42.7389C15.1328 42.6755 15.6025 42.6755 16.0723 42.7389C15.8501 42.7072 15.6216 42.6755 15.3994 42.6501C15.8564 42.7135 16.2944 42.8405 16.7134 43.0119C16.5103 42.9294 16.3071 42.8405 16.104 42.758C16.5166 42.9357 16.8975 43.1642 17.2529 43.4372C17.0815 43.3039 16.9102 43.1706 16.7388 43.0373C17.0688 43.2975 17.3608 43.5895 17.6211 43.9196C17.4878 43.7482 17.3545 43.5768 17.2212 43.4054C17.4941 43.7609 17.7227 44.1418 17.9004 44.5544C17.8179 44.3512 17.729 44.1481 17.6465 43.945C17.8242 44.3703 17.9448 44.8083 18.0083 45.259C17.9766 45.0368 17.9448 44.8083 17.9194 44.5861C17.9575 44.821 17.9702 45.0558 17.9702 45.2907C17.9766 45.9445 18.2495 46.6237 18.7129 47.0871C19.1509 47.5251 19.8745 47.8615 20.5093 47.8298C21.874 47.7663 23.061 46.7126 23.0483 45.2907C23.0356 43.7863 22.604 42.193 21.709 40.9679C21.1377 40.1935 20.5791 39.6222 19.8174 39.0446C19.2144 38.5812 18.5352 38.2765 17.8242 38.0163C17.1069 37.7497 16.3071 37.6354 15.5391 37.61C14.7837 37.5846 13.9902 37.6862 13.2603 37.8957C11.8574 38.2956 10.4927 39.1271 9.55957 40.257C8.9375 41.0124 8.5249 41.7233 8.15674 42.631C7.87109 43.342 7.75684 44.0846 7.68701 44.8464C7.56006 46.3381 7.98535 47.9504 8.75342 49.2262C9.50244 50.4704 10.645 51.5749 11.9717 52.1779C12.8984 52.5968 13.7236 52.8254 14.7329 52.9333C15.4883 53.0158 16.2437 52.9333 16.9863 52.7873C18.5415 52.4953 20.103 51.5622 21.1187 50.3498C22.3247 48.9089 23.0166 47.1823 23.0356 45.2843C23.0483 43.9577 21.8613 42.6818 20.4966 42.7453C19.1255 42.8151 17.9829 43.8688 17.9702 45.2907Z"   ></path>
    <path d="M53.0727 45.2904C53.0727 45.5253 53.0537 45.7602 53.022 45.995C53.0537 45.7729 53.0854 45.5443 53.1108 45.3222C53.0473 45.7792 52.9204 46.2172 52.749 46.6361C52.8315 46.433 52.9204 46.2299 53.0029 46.0268C52.8252 46.4394 52.5967 46.8202 52.3237 47.1757C52.457 47.0043 52.5903 46.8329 52.7236 46.6615C52.4634 46.9916 52.1714 47.2836 51.8413 47.5439C52.0127 47.4106 52.1841 47.2773 52.3555 47.144C52 47.4169 51.6191 47.6454 51.2065 47.8232C51.4097 47.7406 51.6128 47.6518 51.8159 47.5692C51.3906 47.747 50.9526 47.8676 50.5019 47.9311C50.7241 47.8993 50.9526 47.8676 51.1748 47.8422C50.7051 47.9057 50.2353 47.9057 49.7656 47.8422C49.9878 47.8739 50.2163 47.9057 50.4385 47.9311C49.9814 47.8676 49.5434 47.7406 49.1245 47.5692C49.3276 47.6518 49.5308 47.7406 49.7339 47.8232C49.3213 47.6454 48.9404 47.4169 48.585 47.144C48.7563 47.2773 48.9277 47.4106 49.0991 47.5439C48.769 47.2836 48.477 46.9916 48.2168 46.6615C48.3501 46.8329 48.4834 47.0043 48.6167 47.1757C48.3437 46.8202 48.1152 46.4394 47.9375 46.0268C48.02 46.2299 48.1089 46.433 48.1914 46.6361C48.0137 46.2108 47.8931 45.7729 47.8296 45.3222C47.8613 45.5443 47.8931 45.7729 47.9185 45.995C47.855 45.5253 47.855 45.0556 47.9185 44.5859C47.8867 44.808 47.855 45.0365 47.8296 45.2587C47.8931 44.8017 48.02 44.3637 48.1914 43.9447C48.1089 44.1479 48.02 44.351 47.9375 44.5541C48.1152 44.1415 48.3437 43.7607 48.6167 43.4052C48.4834 43.5766 48.3501 43.748 48.2168 43.9193C48.477 43.5893 48.769 43.2973 49.0991 43.037C48.9277 43.1703 48.7563 43.3036 48.585 43.4369C48.9404 43.164 49.3213 42.9355 49.7339 42.7577C49.5308 42.8402 49.3276 42.9291 49.1245 43.0116C49.5498 42.8339 49.9878 42.7133 50.4385 42.6498C50.2163 42.6816 49.9878 42.7133 49.7656 42.7387C50.2353 42.6752 50.7051 42.6752 51.1748 42.7387C50.9526 42.7069 50.7241 42.6752 50.5019 42.6498C50.959 42.7133 51.397 42.8402 51.8159 43.0116C51.6128 42.9291 51.4097 42.8402 51.2065 42.7577C51.6191 42.9355 52 43.164 52.3555 43.4369C52.1841 43.3036 52.0127 43.1703 51.8413 43.037C52.1714 43.2973 52.4634 43.5893 52.7236 43.9193C52.5903 43.748 52.457 43.5766 52.3237 43.4052C52.5967 43.7607 52.8252 44.1415 53.0029 44.5541C52.9204 44.351 52.8315 44.1479 52.749 43.9447C52.9267 44.37 53.0473 44.808 53.1108 45.2587C53.0791 45.0365 53.0473 44.808 53.022 44.5859C53.0537 44.8207 53.0727 45.0556 53.0727 45.2904C53.0791 45.9442 53.352 46.6234 53.8154 47.0868C54.2534 47.5248 54.977 47.8612 55.6118 47.8295C56.9765 47.766 58.1635 46.7123 58.1509 45.2904C58.1382 43.786 57.7065 42.1928 56.8115 40.9677C56.2402 40.1933 55.6816 39.622 54.9199 39.0444C54.3169 38.581 53.6377 38.2763 52.9267 38.016C52.2095 37.7494 51.4097 37.6352 50.6416 37.6098C49.8862 37.5844 49.0928 37.686 48.3628 37.8954C46.96 38.2953 45.5952 39.1269 44.6621 40.2568C44.04 41.0121 43.6274 41.7231 43.2593 42.6308C42.9736 43.3417 42.8594 44.0844 42.7896 44.8461C42.6626 46.3378 43.0879 47.9501 43.856 49.226C44.605 50.4701 45.7476 51.5746 47.0742 52.1776C48.001 52.5966 48.8262 52.8251 49.8354 52.933C50.5908 53.0155 51.3462 52.933 52.0889 52.787C53.644 52.495 55.2055 51.5619 56.2212 50.3495C57.4272 48.9086 58.1191 47.182 58.1382 45.2841C58.1509 43.9574 56.9638 42.6816 55.5991 42.745C54.228 42.8149 53.0854 43.8686 53.0727 45.2904Z"   ></path>
  </symbol>
  <symbol  xmlns="http://www.w3.org/2000/svg" viewBox="0 0 64 64" id="why3">
    <path d="M13.8687 2.58109C13.4749 4.34359 13.0874 6.10609 12.6937 7.86859C12.0562 10.7498 11.4187 13.6248 10.7812 16.5061C10.6249 17.2186 10.4624 17.9311 10.3062 18.6436C9.86245 20.6623 9.6437 22.7498 9.76245 24.8186C10.0687 30.0436 12.1624 35.0186 15.7249 38.8686C17.4687 40.7498 19.5937 42.3561 21.8874 43.5061C24.5187 44.8248 27.3062 45.5998 30.2312 45.8623C35.5437 46.3373 41.0999 44.7311 45.3312 41.4873C47.4999 39.8248 49.3499 37.8811 50.8187 35.5686C52.1499 33.4811 53.1437 31.1123 53.6874 28.6998C54.2437 26.2373 54.4187 23.6686 54.1062 21.1561C53.9624 20.0373 53.7562 18.9436 53.5124 17.8498C52.9374 15.2561 52.3624 12.6623 51.7874 10.0686C51.2624 7.69984 50.7374 5.33734 50.2124 2.96859C50.1812 2.83734 50.1562 2.70609 50.1249 2.57484C50.0062 2.04984 49.6374 1.59359 49.2312 1.27484C48.7937 0.937337 48.2812 0.737337 47.7187 0.737337C46.6749 0.737337 45.6312 0.737337 44.5874 0.737337C42.0812 0.737337 39.5749 0.737337 37.0687 0.737337C34.0499 0.737337 31.0312 0.737337 28.0062 0.737337C25.3874 0.737337 22.7687 0.737337 20.1437 0.737337C18.8749 0.737337 17.5999 0.718587 16.3249 0.737337C16.3062 0.737337 16.2874 0.737337 16.2749 0.737337C14.9687 0.737337 13.7124 1.88734 13.7749 3.23734C13.8374 4.59359 14.8749 5.73734 16.2749 5.73734C17.3187 5.73734 18.3624 5.73734 19.4062 5.73734C21.9124 5.73734 24.4187 5.73734 26.9249 5.73734C29.9437 5.73734 32.9624 5.73734 35.9874 5.73734C38.6062 5.73734 41.2249 5.73734 43.8499 5.73734C45.1187 5.73734 46.3937 5.76234 47.6687 5.73734C47.6874 5.73734 47.7062 5.73734 47.7187 5.73734C46.9124 5.12484 46.1124 4.51234 45.3062 3.89984C45.7374 5.85609 46.1749 7.81234 46.6062 9.77484C47.2624 12.7186 47.9124 15.6686 48.5687 18.6123C48.7999 19.6436 49.0437 20.6748 49.1812 21.7248C49.1499 21.5061 49.1187 21.2811 49.0937 21.0623C49.3249 22.8123 49.3187 24.5748 49.0874 26.3248C49.1187 26.1061 49.1499 25.8811 49.1749 25.6623C48.9374 27.3811 48.4812 29.0623 47.8124 30.6623C47.8937 30.4623 47.9812 30.2623 48.0624 30.0623C47.3999 31.6311 46.5374 33.1123 45.4999 34.4686C45.6312 34.2998 45.7624 34.1311 45.8937 33.9623C44.8499 35.3123 43.6437 36.5186 42.2999 37.5561C42.4687 37.4248 42.6374 37.2936 42.8062 37.1623C41.4624 38.1936 39.9999 39.0436 38.4499 39.7061C38.6499 39.6248 38.8499 39.5373 39.0499 39.4561C37.4312 40.1373 35.7312 40.6061 33.9874 40.8436C34.2062 40.8123 34.4312 40.7811 34.6499 40.7561C32.8874 40.9873 31.1062 40.9873 29.3499 40.7561C29.5687 40.7873 29.7937 40.8186 30.0124 40.8436C28.2687 40.6061 26.5687 40.1373 24.9499 39.4561C25.1499 39.5373 25.3499 39.6248 25.5499 39.7061C23.9937 39.0436 22.5312 38.1873 21.1937 37.1623C21.3624 37.2936 21.5312 37.4248 21.6999 37.5561C20.3562 36.5123 19.1437 35.3061 18.1062 33.9623C18.2374 34.1311 18.3687 34.2998 18.4999 34.4686C17.4624 33.1123 16.6062 31.6373 15.9374 30.0623C16.0187 30.2623 16.1062 30.4623 16.1874 30.6623C15.5187 29.0623 15.0624 27.3811 14.8249 25.6623C14.8562 25.8811 14.8874 26.1061 14.9124 26.3248C14.6812 24.5748 14.6749 22.8123 14.9062 21.0623C14.8749 21.2811 14.8437 21.5061 14.8187 21.7248C14.9437 20.7936 15.1562 19.8748 15.3562 18.9561C15.6312 17.7061 15.9062 16.4623 16.1874 15.2123C16.8624 12.1623 17.5437 9.10609 18.2187 6.05609C18.3812 5.33734 18.5374 4.61859 18.6999 3.89984C18.8437 3.24359 18.7937 2.56234 18.4499 1.97484C18.1437 1.45609 17.5499 0.962337 16.9562 0.824837C16.3187 0.681087 15.5999 0.712337 15.0312 1.07484C14.4874 1.43109 14.0124 1.94359 13.8687 2.58109Z"   ></path>
    <path d="M29.5 43.469C29.5 45.419 29.5 47.369 29.5 49.3128C29.5 52.419 29.5 55.519 29.5 58.6253C29.5 59.3378 29.5 60.044 29.5 60.7565C29.5 62.0628 30.65 63.319 32 63.2565C33.3563 63.194 34.5 62.1565 34.5 60.7565C34.5 58.8065 34.5 56.8565 34.5 54.9128C34.5 51.8065 34.5 48.7065 34.5 45.6003C34.5 44.8878 34.5 44.1815 34.5 43.469C34.5 42.1628 33.35 40.9065 32 40.969C30.6437 41.0315 29.5 42.069 29.5 43.469Z"   ></path>
    <path d="M20.3438 63.2563C21.1188 63.2563 21.8938 63.2563 22.6688 63.2563C24.5188 63.2563 26.3688 63.2563 28.2188 63.2563C30.4688 63.2563 32.7188 63.2563 34.9625 63.2563C36.9 63.2563 38.8375 63.2563 40.7688 63.2563C41.7125 63.2563 42.6625 63.2751 43.6063 63.2563C43.6188 63.2563 43.6313 63.2563 43.6438 63.2563C44.95 63.2563 46.2063 62.1063 46.1438 60.7563C46.0813 59.4001 45.0438 58.2563 43.6438 58.2563C42.8688 58.2563 42.0938 58.2563 41.3188 58.2563C39.4688 58.2563 37.6188 58.2563 35.7688 58.2563C33.5188 58.2563 31.2688 58.2563 29.025 58.2563C27.0875 58.2563 25.15 58.2563 23.2188 58.2563C22.275 58.2563 21.325 58.2376 20.3813 58.2563C20.3688 58.2563 20.3563 58.2563 20.3438 58.2563C19.0375 58.2563 17.7813 59.4063 17.8438 60.7563C17.9063 62.1126 18.9438 63.2563 20.3438 63.2563ZM35.8625 25.6376C35.3938 24.3063 34.925 22.9688 34.4563 21.6376C33.7125 19.5126 32.9688 17.3876 32.2188 15.2626C32.05 14.7751 31.875 14.2938 31.7063 13.8063C30.6813 14.8313 29.6563 15.8563 28.6313 16.8813C30.2063 17.1063 31.775 17.3251 33.35 17.5501C33.575 17.5813 33.8 17.6126 34.025 17.6438C34.4688 17.7626 34.9125 17.7626 35.3563 17.6438C35.7813 17.5251 36.15 17.3126 36.4625 17.0001C37.125 16.3376 37.2875 15.4563 37.1063 14.5688C36.825 13.2251 36.55 11.8751 36.2688 10.5313C35.8188 8.37505 35.375 6.2188 34.925 4.06255C34.825 3.5688 34.7188 3.07505 34.6188 2.58755C34.4938 1.9938 33.9813 1.3938 33.4688 1.0938C32.9313 0.781301 32.1438 0.650051 31.5438 0.843801C30.9375 1.03755 30.3563 1.41255 30.05 1.9938C29.725 2.61255 29.6563 3.2313 29.8 3.9188C30.0813 5.26255 30.3563 6.61255 30.6375 7.9563C31.0875 10.1126 31.5313 12.2688 31.9813 14.4251C32.0813 14.9188 32.1875 15.4126 32.2875 15.9001C33.3125 14.8751 34.3375 13.8501 35.3625 12.8251C33.7875 12.6001 32.2188 12.3813 30.6438 12.1563C30.4188 12.1251 30.1938 12.0938 29.9688 12.0626C29.525 11.9438 29.0813 11.9438 28.6375 12.0626C28.2125 12.1813 27.8438 12.3938 27.5313 12.7063C26.9313 13.3063 26.6 14.3126 26.8875 15.1376C27.3563 16.4688 27.825 17.8063 28.2938 19.1376C29.0375 21.2626 29.7813 23.3876 30.5313 25.5126C30.7 26.0001 30.875 26.4813 31.0438 26.9688C31.2625 27.5876 31.6125 28.1251 32.1938 28.4626C32.7313 28.7751 33.5188 28.9063 34.1188 28.7126C34.725 28.5188 35.3063 28.1438 35.6125 27.5626C35.9125 26.9938 36.0875 26.2688 35.8625 25.6376Z"   ></path>
  </symbol>
  <symbol  xmlns="http://www.w3.org/2000/svg" viewBox="0 0 64 64" id="why2">
    <path d="M57.3876 14C57.3876 15.2063 57.3876 16.4187 57.3876 17.625C57.3876 20.5125 57.3876 23.4 57.3876 26.2812C57.3876 29.7625 57.3876 33.2437 57.3876 36.725C57.3876 39.725 57.3876 42.725 57.3876 45.7188C57.3876 47.1312 57.3938 48.5438 57.3876 49.9562C57.3876 50.0875 57.3813 50.2125 57.3625 50.3438C57.3938 50.125 57.425 49.9 57.4501 49.6813C57.4188 49.9062 57.3625 50.1187 57.2813 50.3312C57.3625 50.1312 57.4501 49.9313 57.5313 49.7313C57.4313 49.9625 57.3125 50.175 57.1625 50.3688C57.2938 50.2 57.4251 50.0312 57.5563 49.8625C57.4188 50.0312 57.2688 50.1875 57.0938 50.325C57.2626 50.1938 57.4313 50.0625 57.6 49.9313C57.4 50.0813 57.1875 50.2062 56.9626 50.3C57.1626 50.2188 57.3625 50.1312 57.5625 50.05C57.35 50.1312 57.1375 50.1875 56.9125 50.2188C57.1313 50.1875 57.3563 50.1562 57.5751 50.1312C57.0438 50.1937 56.4875 50.1562 55.9501 50.1562C54.7375 50.1562 53.5188 50.1562 52.3063 50.1562C50.4938 50.1562 48.6813 50.1562 46.8688 50.1562C44.6501 50.1562 42.4313 50.1562 40.2126 50.1562C37.7813 50.1562 35.3438 50.1562 32.9125 50.1562C30.4563 50.1562 28 50.1562 25.5375 50.1562C23.25 50.1562 20.9563 50.1562 18.6688 50.1562C16.7376 50.1562 14.8125 50.1562 12.8813 50.1562C11.5 50.1562 10.125 50.1562 8.7438 50.1562C8.1063 50.1562 7.47505 50.1562 6.83755 50.1562C6.70005 50.1562 6.56255 50.15 6.42505 50.1312C6.6438 50.1625 6.8688 50.1937 7.08755 50.2188C6.86255 50.1875 6.65005 50.1312 6.43755 50.05C6.63755 50.1312 6.83755 50.2188 7.03755 50.3C6.8063 50.2 6.5938 50.0813 6.40005 49.9313C6.5688 50.0625 6.73755 50.1938 6.9063 50.325C6.73755 50.1875 6.5813 50.0375 6.4438 49.8625C6.57505 50.0312 6.7063 50.2 6.83755 50.3688C6.68755 50.1688 6.56255 49.9562 6.4688 49.7313C6.55005 49.9313 6.63755 50.1312 6.7188 50.3312C6.63755 50.1187 6.5813 49.9062 6.55005 49.6813C6.5813 49.9 6.61255 50.125 6.63755 50.3438C6.5938 49.9313 6.61255 49.5125 6.61255 49.1C6.61255 48.2312 6.61255 47.3625 6.61255 46.4938C6.61255 43.6188 6.61255 40.7438 6.61255 37.8688C6.61255 34.3813 6.61255 30.8875 6.61255 27.4C6.61255 24.375 6.61255 21.35 6.61255 18.325C6.61255 16.9 6.6063 15.475 6.61255 14.0437C6.61255 13.9125 6.6188 13.7875 6.63755 13.6562C6.6063 13.875 6.57505 14.1 6.55005 14.3188C6.5813 14.0938 6.63755 13.8812 6.7188 13.6687C6.63755 13.8687 6.55005 14.0688 6.4688 14.2688C6.5688 14.0375 6.68755 13.825 6.83755 13.6313C6.7063 13.8 6.57505 13.9688 6.4438 14.1375C6.5813 13.9688 6.7313 13.8125 6.9063 13.675C6.73755 13.8063 6.5688 13.9375 6.40005 14.0688C6.60005 13.9188 6.81255 13.7937 7.03755 13.7C6.83755 13.7812 6.63755 13.8687 6.43755 13.95C6.65005 13.8687 6.86255 13.8125 7.08755 13.7812C6.8688 13.8125 6.6438 13.8437 6.42505 13.8687C6.9563 13.8062 7.51255 13.8438 8.05005 13.8438C9.26255 13.8438 10.4813 13.8438 11.6938 13.8438C13.5063 13.8438 15.3188 13.8438 17.1313 13.8438C19.35 13.8438 21.5688 13.8438 23.7875 13.8438C26.2188 13.8438 28.6563 13.8438 31.0875 13.8438C33.5438 13.8438 36 13.8438 38.4626 13.8438C40.75 13.8438 43.0438 13.8438 45.3313 13.8438C47.2626 13.8438 49.1875 13.8438 51.1188 13.8438C52.5 13.8438 53.875 13.8438 55.2563 13.8438C55.8938 13.8438 56.525 13.8438 57.1625 13.8438C57.3 13.8438 57.4375 13.85 57.5751 13.8687C57.3563 13.8375 57.1313 13.8063 56.9125 13.7812C57.1375 13.8125 57.35 13.8687 57.5625 13.95C57.3625 13.8687 57.1626 13.7812 56.9626 13.7C57.1938 13.8 57.4063 13.9188 57.6 14.0688C57.4313 13.9375 57.2626 13.8063 57.0938 13.675C57.2626 13.8125 57.4188 13.9625 57.5563 14.1375C57.4251 13.9688 57.2938 13.8 57.1625 13.6313C57.3125 13.8313 57.4375 14.0438 57.5313 14.2688C57.4501 14.0688 57.3625 13.8687 57.2813 13.6687C57.3625 13.8812 57.4188 14.0938 57.4501 14.3188C57.4188 14.1 57.3876 13.875 57.3625 13.6562C57.3813 13.7688 57.3876 13.8812 57.3876 14C57.4001 14.65 57.6563 15.3063 58.1188 15.7688C58.5501 16.2 59.2626 16.5312 59.8876 16.5C61.2251 16.4375 62.4126 15.4 62.3876 14C62.3688 12.65 61.8563 11.3938 60.9313 10.4063C60.0126 9.43125 58.7563 8.95 57.4438 8.84375C57.2875 8.83125 57.125 8.8375 56.9626 8.8375C56.2688 8.8375 55.5751 8.8375 54.8876 8.8375C53.6125 8.8375 52.3313 8.8375 51.0563 8.8375C49.3376 8.8375 47.6125 8.8375 45.8938 8.8375C43.8813 8.8375 41.8625 8.8375 39.85 8.8375C37.6625 8.8375 35.4688 8.8375 33.2813 8.8375C31.0625 8.8375 28.85 8.8375 26.6313 8.8375C24.5375 8.8375 22.4438 8.8375 20.35 8.8375C18.4938 8.8375 16.6438 8.8375 14.7875 8.8375C13.3313 8.8375 11.8688 8.8375 10.4125 8.8375C9.47505 8.8375 8.53755 8.8375 7.60005 8.8375C7.37505 8.8375 7.15005 8.8375 6.9188 8.8375C6.03755 8.8375 5.2313 9.0375 4.4313 9.40625C3.47505 9.84375 2.58755 10.7438 2.1563 11.7C1.81255 12.4625 1.61255 13.1688 1.6063 14.0188C1.6063 14.2063 1.6063 14.3937 1.6063 14.5875C1.6063 15.6312 1.6063 16.6813 1.6063 17.725C1.6063 19.4313 1.6063 21.1375 1.6063 22.85C1.6063 24.9375 1.6063 27.025 1.6063 29.1125C1.6063 31.325 1.6063 33.5437 1.6063 35.7562C1.6063 37.8187 1.6063 39.875 1.6063 41.9375C1.6063 43.5625 1.6063 45.1937 1.6063 46.8187C1.6063 47.7562 1.6063 48.6938 1.6063 49.6375C1.6063 49.8188 1.60005 50 1.61255 50.1813C1.70005 51.5 2.18755 52.75 3.15005 53.6813C4.11255 54.6125 5.38755 55.1375 6.72505 55.1625C7.1063 55.1687 7.4813 55.1625 7.86255 55.1625C8.87505 55.1625 9.88755 55.1625 10.9063 55.1625C12.4313 55.1625 13.9563 55.1625 15.4813 55.1625C17.3688 55.1625 19.2563 55.1625 21.1438 55.1625C23.2688 55.1625 25.4 55.1625 27.525 55.1625C29.7375 55.1625 31.9438 55.1625 34.1563 55.1625C36.3313 55.1625 38.5063 55.1625 40.6875 55.1625C42.6813 55.1625 44.6688 55.1625 46.6625 55.1625C48.325 55.1625 49.9876 55.1625 51.6501 55.1625C52.8563 55.1625 54.0688 55.1625 55.2751 55.1625C55.8813 55.1625 56.4875 55.1625 57.1 55.1625C58.025 55.1625 58.9001 54.95 59.7188 54.525C61.3876 53.6625 62.375 51.8125 62.3938 49.975C62.4 49.3438 62.3938 48.7188 62.3938 48.0875C62.3938 46.6625 62.3938 45.2437 62.3938 43.8187C62.3938 41.8875 62.3938 39.95 62.3938 38.0187C62.3938 35.825 62.3938 33.6375 62.3938 31.4438C62.3938 29.275 62.3938 27.1063 62.3938 24.9375C62.3938 23.0688 62.3938 21.2062 62.3938 19.3375C62.3938 18.0312 62.3938 16.7188 62.3938 15.4125C62.3938 14.9438 62.3938 14.475 62.3938 14C62.3938 12.6937 61.2438 11.4375 59.8938 11.5C58.5375 11.5625 57.3876 12.6 57.3876 14Z"   ></path>
    <path d="M57.3875 20.8001C57.3875 23.3064 57.3875 25.8126 57.3875 28.3189C57.3875 28.6689 57.3875 29.0189 57.3875 29.3689C58.2187 28.5376 59.0562 27.7001 59.8875 26.8689C59.3875 26.8689 58.8875 26.8689 58.3875 26.8689C57.0375 26.8689 55.6875 26.8689 54.3312 26.8689C52.3312 26.8689 50.3375 26.8689 48.3375 26.8689C45.8937 26.8689 43.4437 26.8689 41 26.8689C38.3312 26.8689 35.6625 26.8689 32.9937 26.8689C30.2875 26.8689 27.5812 26.8689 24.8812 26.8689C22.3687 26.8689 19.8562 26.8689 17.3437 26.8689C15.2125 26.8689 13.0812 26.8689 10.95 26.8689C9.42495 26.8689 7.89995 26.8689 6.3687 26.8689C5.6437 26.8689 4.9187 26.8564 4.19995 26.8689C4.1687 26.8689 4.13745 26.8689 4.1062 26.8689C4.93745 27.7001 5.77495 28.5376 6.6062 29.3689C6.6062 26.8626 6.6062 24.3564 6.6062 21.8501C6.6062 21.5001 6.6062 21.1501 6.6062 20.8001C5.77495 21.6314 4.93745 22.4689 4.1062 23.3001C4.6062 23.3001 5.1062 23.3001 5.6062 23.3001C6.9562 23.3001 8.3062 23.3001 9.66245 23.3001C11.6625 23.3001 13.6562 23.3001 15.6562 23.3001C18.1 23.3001 20.5499 23.3001 22.9937 23.3001C25.6625 23.3001 28.3312 23.3001 31 23.3001C33.7062 23.3001 36.4124 23.3001 39.1124 23.3001C41.625 23.3001 44.1375 23.3001 46.65 23.3001C48.7812 23.3001 50.9125 23.3001 53.0437 23.3001C54.5687 23.3001 56.0937 23.3001 57.625 23.3001C58.3499 23.3001 59.075 23.3064 59.7937 23.3001C59.825 23.3001 59.8562 23.3001 59.8875 23.3001C61.1937 23.3001 62.45 22.1501 62.3875 20.8001C62.325 19.4439 61.2875 18.3001 59.8875 18.3001C59.3875 18.3001 58.8875 18.3001 58.3875 18.3001C57.0375 18.3001 55.6875 18.3001 54.3312 18.3001C52.3312 18.3001 50.3375 18.3001 48.3375 18.3001C45.8937 18.3001 43.4437 18.3001 41 18.3001C38.3312 18.3001 35.6625 18.3001 32.9937 18.3001C30.2875 18.3001 27.5812 18.3001 24.8812 18.3001C22.3687 18.3001 19.8562 18.3001 17.3437 18.3001C15.2125 18.3001 13.0812 18.3001 10.95 18.3001C9.42495 18.3001 7.89995 18.3001 6.3687 18.3001C5.6437 18.3001 4.9187 18.2939 4.19995 18.3001C4.1687 18.3001 4.13745 18.3001 4.1062 18.3001C2.7562 18.3001 1.6062 19.4439 1.6062 20.8001C1.6062 23.3064 1.6062 25.8126 1.6062 28.3189C1.6062 28.6689 1.6062 29.0189 1.6062 29.3689C1.6062 30.7189 2.74995 31.8689 4.1062 31.8689C4.6062 31.8689 5.1062 31.8689 5.6062 31.8689C6.9562 31.8689 8.3062 31.8689 9.66245 31.8689C11.6625 31.8689 13.6562 31.8689 15.6562 31.8689C18.1 31.8689 20.5499 31.8689 22.9937 31.8689C25.6625 31.8689 28.3312 31.8689 31 31.8689C33.7062 31.8689 36.4124 31.8689 39.1124 31.8689C41.625 31.8689 44.1375 31.8689 46.65 31.8689C48.7812 31.8689 50.9125 31.8689 53.0437 31.8689C54.5687 31.8689 56.0937 31.8689 57.625 31.8689C58.3499 31.8689 59.075 31.8751 59.7937 31.8689C59.825 31.8689 59.8562 31.8689 59.8875 31.8689C61.2374 31.8689 62.3875 30.7251 62.3875 29.3689C62.3875 26.8626 62.3875 24.3564 62.3875 21.8501C62.3875 21.5001 62.3875 21.1501 62.3875 20.8001C62.3875 19.4939 61.2374 18.2376 59.8875 18.3001C58.5375 18.3564 57.3875 19.3939 57.3875 20.8001ZM13.1625 43.2876C14.9062 43.2876 16.65 43.2876 18.3937 43.2876C21.1624 43.2876 23.9312 43.2876 26.7 43.2876C27.3375 43.2876 27.975 43.2876 28.6062 43.2876C29.9125 43.2876 31.1687 42.1376 31.1062 40.7876C31.0437 39.4314 30.0062 38.2876 28.6062 38.2876C26.8625 38.2876 25.1187 38.2876 23.375 38.2876C20.6062 38.2876 17.8375 38.2876 15.0687 38.2876C14.4312 38.2876 13.7937 38.2876 13.1625 38.2876C11.8562 38.2876 10.6 39.4376 10.6625 40.7876C10.7187 42.1439 11.7562 43.2876 13.1625 43.2876Z"   ></path>
  </symbol>
  <symbol  xmlns="http://www.w3.org/2000/svg" viewBox="0 0 65 65" id="why4">
    <path d="M50.5527 50.0513C52.1713 50.0513 53.8027 49.7085 55.1357 48.7374C56.6718 47.6202 57.9033 46.0142 58.2461 44.1036C58.4873 42.7452 58.4111 41.3614 58.4111 39.9903C58.4111 36.8545 58.4301 33.7124 58.4111 30.5704C58.4047 29.085 57.9795 27.5298 57.0971 26.3238C55.9863 24.8003 54.3994 23.5752 52.5078 23.2261C51.7778 23.0865 51.0288 23.0166 50.2861 23.0547C49.1689 23.1119 48.1977 23.3848 47.1948 23.8545C45.4428 24.6734 44.205 26.2603 43.5131 28.0186C42.9545 29.4341 43.0625 31.0083 43.0625 32.5C43.0625 34.379 43.0625 36.2642 43.0625 38.1431C43.0625 39.5523 43.0625 40.9615 43.0625 42.3707C43.0625 43.6338 43.3354 44.7764 43.8686 45.9126C44.6811 47.6646 46.2744 48.9024 48.0327 49.5943C48.8261 49.9117 49.7021 50.045 50.5527 50.0513C51.8794 50.064 53.1552 48.877 53.0918 47.5123C53.0283 46.1285 51.9746 44.9859 50.5527 44.9732C50.3178 44.9732 50.0893 44.9541 49.8545 44.9224C50.0766 44.9541 50.3051 44.9859 50.5273 45.0113C50.102 44.9478 49.6958 44.8335 49.3022 44.6685C49.5053 44.751 49.7085 44.8399 49.9116 44.9224C49.5244 44.7574 49.1689 44.5479 48.8325 44.294C49.0039 44.4273 49.1753 44.5606 49.3466 44.6939C48.9975 44.4209 48.6865 44.1099 48.4135 43.7608C48.5468 43.9322 48.6801 44.1036 48.8134 44.275C48.5595 43.9385 48.3501 43.5831 48.185 43.1958C48.2675 43.399 48.3564 43.6021 48.4389 43.8052C48.2739 43.4117 48.1596 43.0054 48.0961 42.5801C48.1279 42.8023 48.1596 43.0308 48.185 43.253C48.1088 42.688 48.1342 42.1104 48.1342 41.5391C48.1342 40.5552 48.1342 39.5777 48.1342 38.5938C48.1342 36.334 48.1342 34.0806 48.1342 31.8208C48.1342 31.1607 48.0961 30.4878 48.185 29.834C48.1533 30.0562 48.1215 30.2847 48.0961 30.5069C48.1596 30.0816 48.2739 29.6753 48.4389 29.2818C48.3564 29.4849 48.2675 29.688 48.185 29.8912C48.3501 29.504 48.5595 29.1485 48.8134 28.8121C48.6801 28.9834 48.5468 29.1548 48.4135 29.3262C48.6865 28.9771 48.9975 28.6661 49.3466 28.3931C49.1753 28.5264 49.0039 28.6597 48.8325 28.793C49.1689 28.5391 49.5244 28.3296 49.9116 28.1646C49.7085 28.2471 49.5053 28.336 49.3022 28.4185C49.6958 28.2535 50.102 28.1392 50.5273 28.0757C50.3051 28.1075 50.0766 28.1392 49.8545 28.1646C50.4321 28.0884 51.0415 28.0884 51.6191 28.1646C51.3969 28.1329 51.1684 28.1011 50.9462 28.0757C51.3715 28.1392 51.7778 28.2535 52.1713 28.4185C51.9682 28.336 51.7651 28.2471 51.562 28.1646C51.9492 28.3296 52.3046 28.5391 52.6411 28.793C52.4697 28.6597 52.2983 28.5264 52.1269 28.3931C52.476 28.6661 52.7871 28.9771 53.06 29.3262C52.9267 29.1548 52.7934 28.9834 52.6601 28.8121C52.914 29.1485 53.1235 29.504 53.2885 29.8912C53.206 29.688 53.1171 29.4849 53.0346 29.2818C53.1997 29.6753 53.3139 30.0816 53.3774 30.5069C53.3457 30.2847 53.3139 30.0562 53.2885 29.834C53.3647 30.399 53.3393 30.9766 53.3393 31.5479C53.3393 32.5318 53.3393 33.5093 53.3393 34.4932C53.3393 36.753 53.3393 39.0064 53.3393 41.2662C53.3393 41.9263 53.3774 42.5992 53.2885 43.253C53.3203 43.0308 53.352 42.8023 53.3774 42.5801C53.3139 43.0054 53.1997 43.4117 53.0346 43.8052C53.1171 43.6021 53.206 43.399 53.2885 43.1958C53.1235 43.5831 52.914 43.9385 52.6601 44.275C52.7934 44.1036 52.9267 43.9322 53.06 43.7608C52.7871 44.1099 52.476 44.4209 52.1269 44.6939C52.2983 44.5606 52.4697 44.4273 52.6411 44.294C52.3046 44.5479 51.9492 44.7574 51.562 44.9224C51.7651 44.8399 51.9682 44.751 52.1713 44.6685C51.7778 44.8335 51.3715 44.9478 50.9462 45.0113C51.1684 44.9795 51.3969 44.9478 51.6191 44.9224C51.2636 44.9668 50.9082 44.9732 50.5527 44.9732C49.226 44.9732 47.9502 46.1412 48.0136 47.5123C48.0771 48.8897 49.1308 50.0513 50.5527 50.0513ZM14.0791 50.0513C15.6977 50.0513 17.3291 49.7085 18.6621 48.7374C20.1982 47.6202 21.4296 46.0142 21.7724 44.1036C22.0136 42.7452 21.9375 41.3614 21.9375 39.9903C21.9375 36.8545 21.9565 33.7124 21.9375 30.5704C21.9311 29.085 21.5058 27.5298 20.6235 26.3238C19.5127 24.8003 17.9257 23.5752 16.0341 23.2261C15.3042 23.0865 14.5551 23.0166 13.8125 23.0547C12.6953 23.1119 11.7241 23.3848 10.7211 23.8545C8.9692 24.6734 7.7314 26.2603 7.03951 28.0186C6.48092 29.4341 6.58883 31.0083 6.58883 32.5C6.58883 34.379 6.58883 36.2642 6.58883 38.1431C6.58883 39.5523 6.58883 40.9615 6.58883 42.3707C6.58883 43.6338 6.86177 44.7764 7.39498 45.9126C8.20748 47.6646 9.80074 48.9024 11.559 49.5943C12.3525 49.9117 13.2285 50.045 14.0791 50.0513C15.4057 50.064 16.6816 48.877 16.6181 47.5123C16.5546 46.1285 15.5009 44.9859 14.0791 44.9732C13.8442 44.9732 13.6157 44.9541 13.3808 44.9224C13.603 44.9541 13.8315 44.9859 14.0537 45.0113C13.6284 44.9478 13.2221 44.8335 12.8286 44.6685C13.0317 44.751 13.2348 44.8399 13.4379 44.9224C13.0507 44.7574 12.6953 44.5479 12.3588 44.294C12.5302 44.4273 12.7016 44.5606 12.873 44.6939C12.5239 44.4209 12.2128 44.1099 11.9399 43.7608C12.0732 43.9322 12.2065 44.1036 12.3398 44.275C12.0859 43.9385 11.8764 43.5831 11.7114 43.1958C11.7939 43.399 11.8828 43.6021 11.9653 43.8052C11.8003 43.4117 11.686 43.0054 11.6225 42.5801C11.6543 42.8023 11.686 43.0308 11.7114 43.253C11.6352 42.688 11.6606 42.1104 11.6606 41.5391C11.6606 40.5552 11.6606 39.5777 11.6606 38.5938C11.6606 36.334 11.6606 34.0806 11.6606 31.8208C11.6606 31.1607 11.6225 30.4878 11.7114 29.834C11.6796 30.0562 11.6479 30.2847 11.6225 30.5069C11.686 30.0816 11.8003 29.6753 11.9653 29.2818C11.8828 29.4849 11.7939 29.688 11.7114 29.8912C11.8764 29.504 12.0859 29.1485 12.3398 28.8121C12.2065 28.9834 12.0732 29.1548 11.9399 29.3262C12.2128 28.9771 12.5239 28.6661 12.873 28.3931C12.7016 28.5264 12.5302 28.6597 12.3588 28.793C12.6953 28.5391 13.0507 28.3296 13.4379 28.1646C13.2348 28.2471 13.0317 28.336 12.8286 28.4185C13.2221 28.2535 13.6284 28.1392 14.0537 28.0757C13.8315 28.1075 13.603 28.1392 13.3808 28.1646C13.9585 28.0884 14.5678 28.0884 15.1455 28.1646C14.9233 28.1329 14.6948 28.1011 14.4726 28.0757C14.8979 28.1392 15.3042 28.2535 15.6977 28.4185C15.4946 28.336 15.2915 28.2471 15.0883 28.1646C15.4755 28.3296 15.831 28.5391 16.1674 28.793C15.9961 28.6597 15.8247 28.5264 15.6533 28.3931C16.0024 28.6661 16.3134 28.9771 16.5864 29.3262C16.4531 29.1548 16.3198 28.9834 16.1865 28.8121C16.4404 29.1485 16.6499 29.504 16.8149 29.8912C16.7324 29.688 16.6435 29.4849 16.561 29.2818C16.726 29.6753 16.8403 30.0816 16.9038 30.5069C16.872 30.2847 16.8403 30.0562 16.8149 29.834C16.8911 30.399 16.8657 30.9766 16.8657 31.5479C16.8657 32.5318 16.8657 33.5093 16.8657 34.4932C16.8657 36.753 16.8657 39.0064 16.8657 41.2662C16.8657 41.9263 16.9038 42.5992 16.8149 43.253C16.8466 43.0308 16.8784 42.8023 16.9038 42.5801C16.8403 43.0054 16.726 43.4117 16.561 43.8052C16.6435 43.6021 16.7324 43.399 16.8149 43.1958C16.6499 43.5831 16.4404 43.9385 16.1865 44.275C16.3198 44.1036 16.4531 43.9322 16.5864 43.7608C16.3134 44.1099 16.0024 44.4209 15.6533 44.6939C15.8247 44.5606 15.9961 44.4273 16.1674 44.294C15.831 44.5479 15.4755 44.7574 15.0883 44.9224C15.2915 44.8399 15.4946 44.751 15.6977 44.6685C15.3042 44.8335 14.8979 44.9478 14.4726 45.0113C14.6948 44.9795 14.9233 44.9478 15.1455 44.9224C14.79 44.9668 14.4345 44.9732 14.0791 44.9732C12.7524 44.9732 11.4765 46.1412 11.54 47.5123C11.5971 48.8897 12.6572 50.0513 14.0791 50.0513Z"   ></path>
    <path d="M11.667 42.3771C11.667 40.4221 11.667 38.467 11.667 36.5119C11.667 33.8014 11.667 31.091 11.667 28.3805C11.667 27.0729 11.6987 25.7717 11.8701 24.4767C11.8384 24.6989 11.8066 24.9274 11.7813 25.1496C12.0605 23.1056 12.6064 21.1061 13.4063 19.2018C13.3237 19.405 13.2349 19.6081 13.1523 19.8112C13.9458 17.9513 14.9678 16.1994 16.2056 14.5998C16.0723 14.7712 15.939 14.9426 15.8057 15.1139C17.0371 13.527 18.4653 12.0988 20.0522 10.8674C19.8809 11.0007 19.7095 11.134 19.5381 11.2673C21.1377 10.0358 22.8897 9.0075 24.7495 8.21404C24.5464 8.29656 24.3433 8.38543 24.1401 8.46795C26.0444 7.66814 28.044 7.12224 30.0879 6.84295C29.8657 6.87469 29.6372 6.90642 29.415 6.93182C31.4653 6.66521 33.541 6.66521 35.5913 6.93182C35.3691 6.90008 35.1406 6.86834 34.9185 6.84295C36.9624 7.12224 38.9619 7.66814 40.8662 8.46795C40.6631 8.38543 40.46 8.29656 40.2568 8.21404C42.1167 9.0075 43.8687 10.0295 45.4683 11.2673C45.2969 11.134 45.1255 11.0007 44.9541 10.8674C46.541 12.0988 47.9692 13.527 49.2007 15.1139C49.0674 14.9426 48.9341 14.7712 48.8008 14.5998C50.0322 16.1994 51.0606 17.9513 51.854 19.8112C51.7715 19.6081 51.6826 19.405 51.6001 19.2018C52.3999 21.1061 52.9458 23.1056 53.2251 25.1496C53.1934 24.9274 53.1616 24.6989 53.1362 24.4767C53.314 25.8224 53.3394 27.1681 53.3394 28.5202C53.3394 29.9865 53.3394 31.4465 53.3394 32.9128C53.3394 36.5627 53.3394 40.2126 53.3394 43.8625C53.3394 45.0368 53.3901 46.2302 53.2378 47.3981C53.2695 47.176 53.3013 46.9474 53.3267 46.7253C53.1934 47.6901 52.9395 48.6296 52.565 49.5246C52.6475 49.3215 52.7363 49.1183 52.8189 48.9152C52.438 49.8166 51.9429 50.6608 51.3399 51.4416C51.4732 51.2702 51.6065 51.0988 51.7398 50.9274C51.1558 51.6764 50.4893 52.3429 49.7402 52.9269C49.9116 52.7936 50.083 52.6603 50.2544 52.527C49.48 53.1237 48.6294 53.6188 47.728 54.006C47.9312 53.9235 48.1343 53.8346 48.3374 53.7521C47.436 54.1266 46.5029 54.3805 45.5381 54.5138C45.7603 54.4821 45.9888 54.4504 46.2109 54.425C45.2271 54.5519 44.2368 54.5265 43.2466 54.5265C42.0151 54.5265 40.7837 54.5265 39.5523 54.5265C39.2412 54.5265 38.9365 54.5265 38.6255 54.5265C37.2988 54.5265 36.023 55.6945 36.0864 57.0656C36.1499 58.443 37.2036 59.6047 38.6255 59.6047C40.187 59.6047 41.7422 59.6047 43.3037 59.6047C43.8941 59.6047 44.4844 59.6174 45.0747 59.5983C46.9092 59.5412 48.6167 59.1096 50.2925 58.3923C53.1172 57.1799 55.5674 54.8503 56.9258 52.0954C57.7383 50.445 58.2017 48.7565 58.3731 46.9221C58.4175 46.4523 58.4175 45.9826 58.4175 45.5065C58.4175 42.2248 58.4175 38.943 58.4175 35.6613C58.4175 32.9636 58.4238 30.2658 58.4175 27.568C58.4111 24.6291 57.9224 21.6393 56.9067 18.8781C55.815 15.9074 54.2534 13.2287 52.2222 10.8039C48.4326 6.28435 42.9356 3.07244 37.1275 2.07586C33.8965 1.51726 30.6719 1.53631 27.4536 2.15203C24.5273 2.71062 21.6582 3.84685 19.1128 5.39568C13.9014 8.57586 9.95313 13.5207 7.95996 19.278C7.03955 21.9313 6.59521 24.7814 6.58887 27.5871C6.58887 28.6789 6.58887 29.7643 6.58887 30.8561C6.58887 34.4426 6.58887 38.0353 6.58887 41.6218C6.58887 41.8757 6.58887 42.1232 6.58887 42.3771C6.58887 43.7038 7.75684 44.9797 9.12793 44.9162C10.499 44.8527 11.667 43.799 11.667 42.3771Z"   ></path>
    <path d="M36.0864 57.0591C36.0864 57.2368 36.0737 57.4146 36.0483 57.5859C36.0801 57.3638 36.1118 57.1353 36.1372 56.9131C36.0864 57.2241 36.0039 57.5288 35.8896 57.8208C35.9722 57.6177 36.061 57.4145 36.1435 57.2114C36.0102 57.5225 35.8389 57.8081 35.6357 58.0811C35.769 57.9097 35.9023 57.7383 36.0356 57.5669C35.8452 57.8081 35.6294 58.0239 35.3882 58.2144C35.5596 58.0811 35.7309 57.9478 35.9023 57.8145C35.6357 58.0176 35.3437 58.189 35.0327 58.3223C35.2358 58.2397 35.439 58.1509 35.6421 58.0684C35.3501 58.189 35.0454 58.2715 34.7344 58.3159C34.9565 58.2842 35.1851 58.2524 35.4072 58.2271C34.5757 58.335 33.706 58.2651 32.8682 58.2651C32.0176 58.2651 31.1353 58.335 30.291 58.2334C30.5132 58.2651 30.7417 58.2969 30.9639 58.3223C30.6338 58.2715 30.3228 58.189 30.0117 58.062C30.2148 58.1445 30.418 58.2334 30.6211 58.3159C30.3228 58.1826 30.0498 58.0239 29.7896 57.8271C29.9609 57.9604 30.1323 58.0937 30.3037 58.2271C30.0498 58.0239 29.8276 57.8018 29.6245 57.5479C29.7578 57.7192 29.8911 57.8906 30.0244 58.062C29.8276 57.8018 29.6689 57.5288 29.5356 57.2305C29.6182 57.4336 29.707 57.6367 29.7896 57.8398C29.6626 57.5352 29.5801 57.2178 29.5293 56.8877C29.561 57.1099 29.5928 57.3384 29.6182 57.5605C29.5737 57.2114 29.5737 56.8687 29.6182 56.5259C29.5864 56.748 29.5547 56.9766 29.5293 57.1987C29.5801 56.8877 29.6626 56.583 29.7769 56.291C29.6943 56.4941 29.6055 56.6973 29.523 56.9004C29.6563 56.5894 29.8276 56.3037 30.0308 56.0308C29.8975 56.2021 29.7642 56.3735 29.6309 56.5449C29.8213 56.3037 30.0371 56.0879 30.2783 55.8975C30.1069 56.0308 29.9355 56.1641 29.7642 56.2974C30.0308 56.0942 30.3228 55.9229 30.6338 55.7896C30.4307 55.8721 30.2275 55.9609 30.0244 56.0435C30.3164 55.9229 30.6211 55.8403 30.9321 55.7959C30.71 55.8276 30.4814 55.8594 30.2593 55.8848C31.0908 55.7769 31.9604 55.8467 32.7983 55.8467C33.6489 55.8467 34.5312 55.7769 35.3755 55.8784C35.1533 55.8467 34.9248 55.8149 34.7026 55.7896C35.0327 55.8403 35.3437 55.9229 35.6548 56.0498C35.4517 55.9673 35.2485 55.8784 35.0454 55.7959C35.3437 55.9292 35.6167 56.0879 35.8769 56.2847C35.7056 56.1514 35.5342 56.0181 35.3628 55.8848C35.6167 56.0879 35.8389 56.3101 36.042 56.564C35.9087 56.3926 35.7754 56.2212 35.6421 56.0498C35.8389 56.3101 35.9976 56.583 36.1309 56.8813C36.0483 56.6782 35.9595 56.4751 35.8769 56.272C36.0039 56.5767 36.0864 56.894 36.1372 57.2241C36.1055 57.002 36.0737 56.7734 36.0483 56.5513C36.0737 56.7227 36.0801 56.8877 36.0864 57.0591C36.0928 57.7129 36.3657 58.3857 36.8291 58.8555C37.2671 59.2935 37.9907 59.6299 38.6255 59.5981C39.9839 59.5347 41.1836 58.481 41.1645 57.0591C41.1518 55.9038 40.8408 54.6978 40.1997 53.7202C39.5967 52.8062 38.7778 51.9746 37.7876 51.4858C36.8545 51.0288 35.9023 50.7749 34.8486 50.7622C34.5947 50.7622 34.3472 50.7622 34.0933 50.7622C33.1855 50.7622 32.2715 50.7622 31.3638 50.7622C31.1733 50.7622 30.9766 50.7622 30.7861 50.7622C29.7197 50.7749 28.7041 51.0415 27.7583 51.543C26.8442 52.0254 26.1333 52.7681 25.5366 53.5996C24.9209 54.4629 24.6607 55.4849 24.5274 56.5259C24.3877 57.6812 24.6797 58.8428 25.1748 59.8838C25.6509 60.8994 26.457 61.6992 27.3711 62.334C28.5264 63.1338 29.9102 63.3496 31.2812 63.3496C32.189 63.3496 33.0903 63.3496 33.998 63.3496C34.2837 63.3496 34.5757 63.3496 34.8613 63.3496C35.9341 63.3369 36.9497 63.0703 37.8955 62.5688C39.9077 61.5024 41.1391 59.2998 41.1645 57.0527C41.1772 55.7261 39.9839 54.4502 38.6255 54.5137C37.2353 54.5835 36.0991 55.6372 36.0864 57.0591Z"   ></path>
  </symbol>
  <symbol xmlns="http://www.w3.org/2000/svg"  id="cross" viewBox="0 0 32 32">
    <path d="M31.708 25.708c-0-0-0-0-0-0l-9.708-9.708 9.708-9.708c0-0 0-0 0-0 0.105-0.105 0.18-0.227 0.229-0.357 0.133-0.356 0.057-0.771-0.229-1.057l-4.586-4.586c-0.286-0.286-0.702-0.361-1.057-0.229-0.13 0.048-0.252 0.124-0.357 0.228 0 0-0 0-0 0l-9.708 9.708-9.708-9.708c-0-0-0-0-0-0-0.105-0.104-0.227-0.18-0.357-0.228-0.356-0.133-0.771-0.057-1.057 0.229l-4.586 4.586c-0.286 0.286-0.361 0.702-0.229 1.057 0.049 0.13 0.124 0.252 0.229 0.357 0 0 0 0 0 0l9.708 9.708-9.708 9.708c-0 0-0 0-0 0-0.104 0.105-0.18 0.227-0.229 0.357-0.133 0.355-0.057 0.771 0.229 1.057l4.586 4.586c0.286 0.286 0.702 0.361 1.057 0.229 0.13-0.049 0.252-0.124 0.357-0.229 0-0 0-0 0-0l9.708-9.708 9.708 9.708c0 0 0 0 0 0 0.105 0.105 0.227 0.18 0.357 0.229 0.356 0.133 0.771 0.057 1.057-0.229l4.586-4.586c0.286-0.286 0.362-0.702 0.229-1.057-0.049-0.13-0.124-0.252-0.229-0.357z"></path>
  </symbol>
  <symbol xmlns="http://www.w3.org/2000/svg"  id="menu" viewBox="0 0 32 32">
<path d="M12 2h20v4h-20v-4zM12 14h20v4h-20v-4zM12 26h20v4h-20v-4zM0 4c0-2.209 1.791-4 4-4s4 1.791 4 4c0 2.209-1.791 4-4 4s-4-1.791-4-4zM0 16c0-2.209 1.791-4 4-4s4 1.791 4 4c0 2.209-1.791 4-4 4s-4-1.791-4-4zM0 28c0-2.209 1.791-4 4-4s4 1.791 4 4c0 2.209-1.791 4-4 4s-4-1.791-4-4z"></path>
</symbol>
</svg>