<svg width="32" height="32" viewBox="0 0 32 32" fill="none" xmlns="http://www.w3.org/2000/svg">
<path d="M6.99998 15.2883C6.99998 15.0231 7.10534 14.7687 7.29288 14.5812C7.48041 14.3936 7.73477 14.2883 7.99998 14.2883L21.59 14.2883L20.29 12.9983C20.1017 12.81 19.9959 12.5546 19.9959 12.2883C19.9959 12.022 20.1017 11.7666 20.29 11.5783C20.4783 11.39 20.7337 11.2842 21 11.2842C21.2663 11.2842 21.5217 11.39 21.71 11.5783L24.71 14.5783C24.8487 14.7189 24.9427 14.8975 24.9801 15.0915C25.0175 15.2854 24.9966 15.4862 24.92 15.6683C24.845 15.8509 24.7176 16.0072 24.5538 16.1175C24.3901 16.2279 24.1974 16.2873 24 16.2883L7.99998 16.2883C7.73477 16.2883 7.48041 16.1829 7.29288 15.9954C7.10534 15.8078 6.99998 15.5535 6.99998 15.2883Z" fill="#393D46"/>
<path d="M20 18.2883C19.9992 18.1567 20.0245 18.0262 20.0742 17.9044C20.124 17.7825 20.1973 17.6717 20.29 17.5783L23.29 14.5783C23.4783 14.39 23.7337 14.2842 24 14.2842C24.1319 14.2842 24.2624 14.3102 24.3842 14.3606C24.5061 14.4111 24.6168 14.485 24.71 14.5783C24.8032 14.6715 24.8772 14.7822 24.9277 14.904C24.9781 15.0258 25.0041 15.1564 25.0041 15.2883C25.0041 15.5546 24.8983 15.81 24.71 15.9983L21.71 18.9983C21.617 19.092 21.5064 19.1664 21.3846 19.2172C21.2627 19.2679 21.132 19.2941 21 19.2941C20.868 19.2941 20.7373 19.2679 20.6154 19.2172C20.4936 19.1664 20.383 19.092 20.29 18.9983C20.1973 18.9048 20.124 18.794 20.0742 18.6722C20.0245 18.5503 19.9992 18.4199 20 18.2883Z" fill="#393D46"/>
</svg>
