<svg width="24" height="25" viewBox="0 0 24 25" fill="none" xmlns="http://www.w3.org/2000/svg">
<path d="M8.50997 20.2881H8.42997C6.81833 20.274 5.22999 19.9017 3.77997 19.1981C3.51324 19.0728 3.29363 18.8654 3.15327 18.6063C3.01292 18.3472 2.9592 18.05 2.99997 17.7581C3.04431 17.4643 3.18036 17.192 3.38868 16.9801C3.59699 16.7681 3.86694 16.6275 4.15997 16.5781C5.05858 16.4582 5.92306 16.1553 6.69997 15.6881C5.35113 14.6335 4.31272 13.2337 3.69479 11.6369C3.07686 10.0401 2.90242 8.30595 3.18997 6.61811C3.22896 6.35076 3.34393 6.10024 3.52122 5.89637C3.6985 5.69249 3.93063 5.54384 4.18997 5.46811C4.44228 5.38887 4.71232 5.38548 4.96654 5.45837C5.22076 5.53126 5.44797 5.67721 5.61997 5.87811C6.20397 6.64389 6.93786 7.28267 7.77687 7.75547C8.61589 8.22827 9.54242 8.52519 10.5 8.62811C10.5457 7.44996 11.052 6.33682 11.91 5.52811C12.3384 5.11788 12.8441 4.79702 13.3978 4.58421C13.9514 4.37141 14.5419 4.27092 15.1348 4.28861C15.7276 4.30629 16.3111 4.44179 16.8511 4.68722C17.391 4.93264 17.8768 5.28308 18.28 5.71811C18.385 5.81098 18.5155 5.87016 18.6546 5.88799C18.7937 5.90582 18.9349 5.88147 19.06 5.81811C19.2984 5.70565 19.5639 5.66332 19.8255 5.69605C20.0871 5.72878 20.3339 5.83522 20.5373 6.00295C20.7407 6.17068 20.8922 6.39279 20.9741 6.64336C21.056 6.89393 21.065 7.16263 21 7.41811C20.7693 8.36822 20.3323 9.2559 19.72 10.0181C19.585 12.8629 18.3308 15.5389 16.2309 17.4627C14.131 19.3866 11.3556 20.4022 8.50997 20.2881ZM8.50997 18.2881H8.58997C9.75264 18.3281 10.9117 18.1369 11.9999 17.7256C13.0881 17.3143 14.0839 16.691 14.9294 15.892C15.7749 15.093 16.4535 14.134 16.9256 13.0708C17.3978 12.0076 17.6542 10.8612 17.68 9.69811C17.6965 9.37936 17.8279 9.07739 18.05 8.84811C18.2939 8.53935 18.5019 8.20386 18.67 7.84811C18.3097 7.84879 17.9534 7.77344 17.6242 7.62696C17.2951 7.48049 17.0006 7.2662 16.76 6.99811C16.5286 6.76866 16.2537 6.58768 15.9515 6.46577C15.6493 6.34386 15.3258 6.28346 15 6.28811C14.6709 6.2796 14.3433 6.33617 14.0362 6.45458C13.729 6.57299 13.4482 6.7509 13.21 6.97811C12.8886 7.28311 12.6529 7.66717 12.5265 8.09187C12.4002 8.51657 12.3876 8.96701 12.49 9.39811L12.75 10.5381L11.58 10.6181C10.3811 10.7159 9.17523 10.5519 8.04598 10.1375C6.91673 9.72306 5.89105 9.06816 5.03997 8.21811C5.00347 9.5345 5.33277 10.8352 5.99126 11.9757C6.64976 13.1161 7.61164 14.0516 8.76997 14.6781L9.71997 15.2181L9.08997 16.1181C8.40866 17.0116 7.47515 17.6804 6.40997 18.0381C7.09328 18.2094 7.79554 18.2934 8.49997 18.2881H8.50997Z" fill="white"/>
</svg>
